<svg width="142" height="43" viewBox="0 0 142 43" fill="none" xmlns="http://www.w3.org/2000/svg">
    <rect x="5.2251" y="0.799561" width="131.503" height="41.8022" rx="20.9011" fill="#D0941C"/>
    <mask id="path-2-outside-1_121_6844" maskUnits="userSpaceOnUse" x="19.0303" y="13.8628" width="103" height="15" fill="black">
    <rect fill="white" x="19.0303" y="13.8628" width="103" height="15"/>
    <path d="M21.9947 27.121V25.3793H20.2529V23.6375H23.7364V25.3793H28.9617V21.8958H21.9947V20.154H20.2529V16.6705H21.9947V14.9287H30.7035V16.6705H32.4452V18.4122H28.9617V16.6705H23.7364V20.154H30.7035V21.8958H32.4452V25.3793H30.7035V27.121H21.9947ZM36.7648 27.121V25.3793H40.2483V16.6705H36.7648V14.9287H47.2153V16.6705H43.7318V25.3793H47.2153V27.121H36.7648ZM53.2766 27.121V25.3793H51.5349V23.6375H49.7931V18.4122H51.5349V16.6705H53.2766V14.9287H61.9854V16.6705H55.0184V18.4122H53.2766V23.6375H55.0184V25.3793H58.5019V21.8958H56.7602V20.154H61.9854V27.121H53.2766ZM64.5632 27.121V14.9287H68.0468V16.6705H69.7885V18.4122H71.5303V20.154H73.272V14.9287H76.7555V27.121H73.272V23.6375H71.5303V21.8958H69.7885V20.154H68.0468V27.121H64.5632ZM95.8452 27.121V25.3793H94.1035V14.9287H97.587V25.3793H102.812V14.9287H106.296V25.3793H104.554V27.121H95.8452ZM108.874 27.121V14.9287H119.324V16.6705H121.066V21.8958H119.324V23.6375H112.357V27.121H108.874ZM112.357 21.8958H117.582V16.6705H112.357V21.8958Z"/>
    </mask>
    <path d="M21.9947 27.121V25.3793H20.2529V23.6375H23.7364V25.3793H28.9617V21.8958H21.9947V20.154H20.2529V16.6705H21.9947V14.9287H30.7035V16.6705H32.4452V18.4122H28.9617V16.6705H23.7364V20.154H30.7035V21.8958H32.4452V25.3793H30.7035V27.121H21.9947ZM36.7648 27.121V25.3793H40.2483V16.6705H36.7648V14.9287H47.2153V16.6705H43.7318V25.3793H47.2153V27.121H36.7648ZM53.2766 27.121V25.3793H51.5349V23.6375H49.7931V18.4122H51.5349V16.6705H53.2766V14.9287H61.9854V16.6705H55.0184V18.4122H53.2766V23.6375H55.0184V25.3793H58.5019V21.8958H56.7602V20.154H61.9854V27.121H53.2766ZM64.5632 27.121V14.9287H68.0468V16.6705H69.7885V18.4122H71.5303V20.154H73.272V14.9287H76.7555V27.121H73.272V23.6375H71.5303V21.8958H69.7885V20.154H68.0468V27.121H64.5632ZM95.8452 27.121V25.3793H94.1035V14.9287H97.587V25.3793H102.812V14.9287H106.296V25.3793H104.554V27.121H95.8452ZM108.874 27.121V14.9287H119.324V16.6705H121.066V21.8958H119.324V23.6375H112.357V27.121H108.874ZM112.357 21.8958H117.582V16.6705H112.357V21.8958Z" fill="#F8DDA1"/>
    <path d="M21.9947 27.121H21.1238V27.9919H21.9947V27.121ZM21.9947 25.3793H22.8655V24.5084H21.9947V25.3793ZM20.2529 25.3793H19.382V26.2502H20.2529V25.3793ZM20.2529 23.6375V22.7666H19.382V23.6375H20.2529ZM23.7364 23.6375H24.6073V22.7666H23.7364V23.6375ZM23.7364 25.3793H22.8655V26.2502H23.7364V25.3793ZM28.9617 25.3793V26.2502H29.8326V25.3793H28.9617ZM28.9617 21.8958H29.8326V21.0249H28.9617V21.8958ZM21.9947 21.8958H21.1238V22.7666H21.9947V21.8958ZM21.9947 20.154H22.8655V19.2831H21.9947V20.154ZM20.2529 20.154H19.382V21.0249H20.2529V20.154ZM20.2529 16.6705V15.7996H19.382V16.6705H20.2529ZM21.9947 16.6705V17.5414H22.8655V16.6705H21.9947ZM21.9947 14.9287V14.0578H21.1238V14.9287H21.9947ZM30.7035 14.9287H31.5743V14.0578H30.7035V14.9287ZM30.7035 16.6705H29.8326V17.5414H30.7035V16.6705ZM32.4452 16.6705H33.3161V15.7996H32.4452V16.6705ZM32.4452 18.4122V19.2831H33.3161V18.4122H32.4452ZM28.9617 18.4122H28.0908V19.2831H28.9617V18.4122ZM28.9617 16.6705H29.8326V15.7996H28.9617V16.6705ZM23.7364 16.6705V15.7996H22.8655V16.6705H23.7364ZM23.7364 20.154H22.8655V21.0249H23.7364V20.154ZM30.7035 20.154H31.5743V19.2831H30.7035V20.154ZM30.7035 21.8958H29.8326V22.7666H30.7035V21.8958ZM32.4452 21.8958H33.3161V21.0249H32.4452V21.8958ZM32.4452 25.3793V26.2502H33.3161V25.3793H32.4452ZM30.7035 25.3793V24.5084H29.8326V25.3793H30.7035ZM30.7035 27.121V27.9919H31.5743V27.121H30.7035ZM21.9947 27.121H22.8655V25.3793H21.9947H21.1238V27.121H21.9947ZM21.9947 25.3793V24.5084H20.2529V25.3793V26.2502H21.9947V25.3793ZM20.2529 25.3793H21.1238V23.6375H20.2529H19.382V25.3793H20.2529ZM20.2529 23.6375V24.5084H23.7364V23.6375V22.7666H20.2529V23.6375ZM23.7364 23.6375H22.8655V25.3793H23.7364H24.6073V23.6375H23.7364ZM23.7364 25.3793V26.2502H28.9617V25.3793V24.5084H23.7364V25.3793ZM28.9617 25.3793H29.8326V21.8958H28.9617H28.0908V25.3793H28.9617ZM28.9617 21.8958V21.0249H21.9947V21.8958V22.7666H28.9617V21.8958ZM21.9947 21.8958H22.8655V20.154H21.9947H21.1238V21.8958H21.9947ZM21.9947 20.154V19.2831H20.2529V20.154V21.0249H21.9947V20.154ZM20.2529 20.154H21.1238V16.6705H20.2529H19.382V20.154H20.2529ZM20.2529 16.6705V17.5414H21.9947V16.6705V15.7996H20.2529V16.6705ZM21.9947 16.6705H22.8655V14.9287H21.9947H21.1238V16.6705H21.9947ZM21.9947 14.9287V15.7996H30.7035V14.9287V14.0578H21.9947V14.9287ZM30.7035 14.9287H29.8326V16.6705H30.7035H31.5743V14.9287H30.7035ZM30.7035 16.6705V17.5414H32.4452V16.6705V15.7996H30.7035V16.6705ZM32.4452 16.6705H31.5743V18.4122H32.4452H33.3161V16.6705H32.4452ZM32.4452 18.4122V17.5414H28.9617V18.4122V19.2831H32.4452V18.4122ZM28.9617 18.4122H29.8326V16.6705H28.9617H28.0908V18.4122H28.9617ZM28.9617 16.6705V15.7996H23.7364V16.6705V17.5414H28.9617V16.6705ZM23.7364 16.6705H22.8655V20.154H23.7364H24.6073V16.6705H23.7364ZM23.7364 20.154V21.0249H30.7035V20.154V19.2831H23.7364V20.154ZM30.7035 20.154H29.8326V21.8958H30.7035H31.5743V20.154H30.7035ZM30.7035 21.8958V22.7666H32.4452V21.8958V21.0249H30.7035V21.8958ZM32.4452 21.8958H31.5743V25.3793H32.4452H33.3161V21.8958H32.4452ZM32.4452 25.3793V24.5084H30.7035V25.3793V26.2502H32.4452V25.3793ZM30.7035 25.3793H29.8326V27.121H30.7035H31.5743V25.3793H30.7035ZM30.7035 27.121V26.2502H21.9947V27.121V27.9919H30.7035V27.121ZM36.7648 27.121H35.8939V27.9919H36.7648V27.121ZM36.7648 25.3793V24.5084H35.8939V25.3793H36.7648ZM40.2483 25.3793V26.2502H41.1192V25.3793H40.2483ZM40.2483 16.6705H41.1192V15.7996H40.2483V16.6705ZM36.7648 16.6705H35.8939V17.5414H36.7648V16.6705ZM36.7648 14.9287V14.0578H35.8939V14.9287H36.7648ZM47.2153 14.9287H48.0862V14.0578H47.2153V14.9287ZM47.2153 16.6705V17.5414H48.0862V16.6705H47.2153ZM43.7318 16.6705V15.7996H42.8609V16.6705H43.7318ZM43.7318 25.3793H42.8609V26.2502H43.7318V25.3793ZM47.2153 25.3793H48.0862V24.5084H47.2153V25.3793ZM47.2153 27.121V27.9919H48.0862V27.121H47.2153ZM36.7648 27.121H37.6357V25.3793H36.7648H35.8939V27.121H36.7648ZM36.7648 25.3793V26.2502H40.2483V25.3793V24.5084H36.7648V25.3793ZM40.2483 25.3793H41.1192V16.6705H40.2483H39.3774V25.3793H40.2483ZM40.2483 16.6705V15.7996H36.7648V16.6705V17.5414H40.2483V16.6705ZM36.7648 16.6705H37.6357V14.9287H36.7648H35.8939V16.6705H36.7648ZM36.7648 14.9287V15.7996H47.2153V14.9287V14.0578H36.7648V14.9287ZM47.2153 14.9287H46.3444V16.6705H47.2153H48.0862V14.9287H47.2153ZM47.2153 16.6705V15.7996H43.7318V16.6705V17.5414H47.2153V16.6705ZM43.7318 16.6705H42.8609V25.3793H43.7318H44.6027V16.6705H43.7318ZM43.7318 25.3793V26.2502H47.2153V25.3793V24.5084H43.7318V25.3793ZM47.2153 25.3793H46.3444V27.121H47.2153H48.0862V25.3793H47.2153ZM47.2153 27.121V26.2502H36.7648V27.121V27.9919H47.2153V27.121ZM53.2766 27.121H52.4058V27.9919H53.2766V27.121ZM53.2766 25.3793H54.1475V24.5084H53.2766V25.3793ZM51.5349 25.3793H50.664V26.2502H51.5349V25.3793ZM51.5349 23.6375H52.4058V22.7666H51.5349V23.6375ZM49.7931 23.6375H48.9223V24.5084H49.7931V23.6375ZM49.7931 18.4122V17.5414H48.9223V18.4122H49.7931ZM51.5349 18.4122V19.2831H52.4058V18.4122H51.5349ZM51.5349 16.6705V15.7996H50.664V16.6705H51.5349ZM53.2766 16.6705V17.5414H54.1475V16.6705H53.2766ZM53.2766 14.9287V14.0578H52.4058V14.9287H53.2766ZM61.9854 14.9287H62.8563V14.0578H61.9854V14.9287ZM61.9854 16.6705V17.5414H62.8563V16.6705H61.9854ZM55.0184 16.6705V15.7996H54.1475V16.6705H55.0184ZM55.0184 18.4122V19.2831H55.8893V18.4122H55.0184ZM53.2766 18.4122V17.5414H52.4058V18.4122H53.2766ZM53.2766 23.6375H52.4058V24.5084H53.2766V23.6375ZM55.0184 23.6375H55.8893V22.7666H55.0184V23.6375ZM55.0184 25.3793H54.1475V26.2502H55.0184V25.3793ZM58.5019 25.3793V26.2502H59.3728V25.3793H58.5019ZM58.5019 21.8958H59.3728V21.0249H58.5019V21.8958ZM56.7602 21.8958H55.8893V22.7666H56.7602V21.8958ZM56.7602 20.154V19.2831H55.8893V20.154H56.7602ZM61.9854 20.154H62.8563V19.2831H61.9854V20.154ZM61.9854 27.121V27.9919H62.8563V27.121H61.9854ZM53.2766 27.121H54.1475V25.3793H53.2766H52.4058V27.121H53.2766ZM53.2766 25.3793V24.5084H51.5349V25.3793V26.2502H53.2766V25.3793ZM51.5349 25.3793H52.4058V23.6375H51.5349H50.664V25.3793H51.5349ZM51.5349 23.6375V22.7666H49.7931V23.6375V24.5084H51.5349V23.6375ZM49.7931 23.6375H50.664V18.4122H49.7931H48.9223V23.6375H49.7931ZM49.7931 18.4122V19.2831H51.5349V18.4122V17.5414H49.7931V18.4122ZM51.5349 18.4122H52.4058V16.6705H51.5349H50.664V18.4122H51.5349ZM51.5349 16.6705V17.5414H53.2766V16.6705V15.7996H51.5349V16.6705ZM53.2766 16.6705H54.1475V14.9287H53.2766H52.4058V16.6705H53.2766ZM53.2766 14.9287V15.7996H61.9854V14.9287V14.0578H53.2766V14.9287ZM61.9854 14.9287H61.1146V16.6705H61.9854H62.8563V14.9287H61.9854ZM61.9854 16.6705V15.7996H55.0184V16.6705V17.5414H61.9854V16.6705ZM55.0184 16.6705H54.1475V18.4122H55.0184H55.8893V16.6705H55.0184ZM55.0184 18.4122V17.5414H53.2766V18.4122V19.2831H55.0184V18.4122ZM53.2766 18.4122H52.4058V23.6375H53.2766H54.1475V18.4122H53.2766ZM53.2766 23.6375V24.5084H55.0184V23.6375V22.7666H53.2766V23.6375ZM55.0184 23.6375H54.1475V25.3793H55.0184H55.8893V23.6375H55.0184ZM55.0184 25.3793V26.2502H58.5019V25.3793V24.5084H55.0184V25.3793ZM58.5019 25.3793H59.3728V21.8958H58.5019H57.631V25.3793H58.5019ZM58.5019 21.8958V21.0249H56.7602V21.8958V22.7666H58.5019V21.8958ZM56.7602 21.8958H57.631V20.154H56.7602H55.8893V21.8958H56.7602ZM56.7602 20.154V21.0249H61.9854V20.154V19.2831H56.7602V20.154ZM61.9854 20.154H61.1146V27.121H61.9854H62.8563V20.154H61.9854ZM61.9854 27.121V26.2502H53.2766V27.121V27.9919H61.9854V27.121ZM64.5632 27.121H63.6924V27.9919H64.5632V27.121ZM64.5632 14.9287V14.0578H63.6924V14.9287H64.5632ZM68.0468 14.9287H68.9176V14.0578H68.0468V14.9287ZM68.0468 16.6705H67.1759V17.5414H68.0468V16.6705ZM69.7885 16.6705H70.6594V15.7996H69.7885V16.6705ZM69.7885 18.4122H68.9176V19.2831H69.7885V18.4122ZM71.5303 18.4122H72.4012V17.5414H71.5303V18.4122ZM71.5303 20.154H70.6594V21.0249H71.5303V20.154ZM73.272 20.154V21.0249H74.1429V20.154H73.272ZM73.272 14.9287V14.0578H72.4012V14.9287H73.272ZM76.7555 14.9287H77.6264V14.0578H76.7555V14.9287ZM76.7555 27.121V27.9919H77.6264V27.121H76.7555ZM73.272 27.121H72.4012V27.9919H73.272V27.121ZM73.272 23.6375H74.1429V22.7666H73.272V23.6375ZM71.5303 23.6375H70.6594V24.5084H71.5303V23.6375ZM71.5303 21.8958H72.4012V21.0249H71.5303V21.8958ZM69.7885 21.8958H68.9176V22.7666H69.7885V21.8958ZM69.7885 20.154H70.6594V19.2831H69.7885V20.154ZM68.0468 20.154V19.2831H67.1759V20.154H68.0468ZM68.0468 27.121V27.9919H68.9176V27.121H68.0468ZM64.5632 27.121H65.4341V14.9287H64.5632H63.6924V27.121H64.5632ZM64.5632 14.9287V15.7996H68.0468V14.9287V14.0578H64.5632V14.9287ZM68.0468 14.9287H67.1759V16.6705H68.0468H68.9176V14.9287H68.0468ZM68.0468 16.6705V17.5414H69.7885V16.6705V15.7996H68.0468V16.6705ZM69.7885 16.6705H68.9176V18.4122H69.7885H70.6594V16.6705H69.7885ZM69.7885 18.4122V19.2831H71.5303V18.4122V17.5414H69.7885V18.4122ZM71.5303 18.4122H70.6594V20.154H71.5303H72.4012V18.4122H71.5303ZM71.5303 20.154V21.0249H73.272V20.154V19.2831H71.5303V20.154ZM73.272 20.154H74.1429V14.9287H73.272H72.4012V20.154H73.272ZM73.272 14.9287V15.7996H76.7555V14.9287V14.0578H73.272V14.9287ZM76.7555 14.9287H75.8847V27.121H76.7555H77.6264V14.9287H76.7555ZM76.7555 27.121V26.2502H73.272V27.121V27.9919H76.7555V27.121ZM73.272 27.121H74.1429V23.6375H73.272H72.4012V27.121H73.272ZM73.272 23.6375V22.7666H71.5303V23.6375V24.5084H73.272V23.6375ZM71.5303 23.6375H72.4012V21.8958H71.5303H70.6594V23.6375H71.5303ZM71.5303 21.8958V21.0249H69.7885V21.8958V22.7666H71.5303V21.8958ZM69.7885 21.8958H70.6594V20.154H69.7885H68.9176V21.8958H69.7885ZM69.7885 20.154V19.2831H68.0468V20.154V21.0249H69.7885V20.154ZM68.0468 20.154H67.1759V27.121H68.0468H68.9176V20.154H68.0468ZM68.0468 27.121V26.2502H64.5632V27.121V27.9919H68.0468V27.121ZM95.8452 27.121H94.9743V27.9919H95.8452V27.121ZM95.8452 25.3793H96.7161V24.5084H95.8452V25.3793ZM94.1035 25.3793H93.2326V26.2502H94.1035V25.3793ZM94.1035 14.9287V14.0578H93.2326V14.9287H94.1035ZM97.587 14.9287H98.4578V14.0578H97.587V14.9287ZM97.587 25.3793H96.7161V26.2502H97.587V25.3793ZM102.812 25.3793V26.2502H103.683V25.3793H102.812ZM102.812 14.9287V14.0578H101.941V14.9287H102.812ZM106.296 14.9287H107.167V14.0578H106.296V14.9287ZM106.296 25.3793V26.2502H107.167V25.3793H106.296ZM104.554 25.3793V24.5084H103.683V25.3793H104.554ZM104.554 27.121V27.9919H105.425V27.121H104.554ZM95.8452 27.121H96.7161V25.3793H95.8452H94.9743V27.121H95.8452ZM95.8452 25.3793V24.5084H94.1035V25.3793V26.2502H95.8452V25.3793ZM94.1035 25.3793H94.9743V14.9287H94.1035H93.2326V25.3793H94.1035ZM94.1035 14.9287V15.7996H97.587V14.9287V14.0578H94.1035V14.9287ZM97.587 14.9287H96.7161V25.3793H97.587H98.4578V14.9287H97.587ZM97.587 25.3793V26.2502H102.812V25.3793V24.5084H97.587V25.3793ZM102.812 25.3793H103.683V14.9287H102.812H101.941V25.3793H102.812ZM102.812 14.9287V15.7996H106.296V14.9287V14.0578H102.812V14.9287ZM106.296 14.9287H105.425V25.3793H106.296H107.167V14.9287H106.296ZM106.296 25.3793V24.5084H104.554V25.3793V26.2502H106.296V25.3793ZM104.554 25.3793H103.683V27.121H104.554H105.425V25.3793H104.554ZM104.554 27.121V26.2502H95.8452V27.121V27.9919H104.554V27.121ZM108.874 27.121H108.003V27.9919H108.874V27.121ZM108.874 14.9287V14.0578H108.003V14.9287H108.874ZM119.324 14.9287H120.195V14.0578H119.324V14.9287ZM119.324 16.6705H118.453V17.5414H119.324V16.6705ZM121.066 16.6705H121.937V15.7996H121.066V16.6705ZM121.066 21.8958V22.7666H121.937V21.8958H121.066ZM119.324 21.8958V21.0249H118.453V21.8958H119.324ZM119.324 23.6375V24.5084H120.195V23.6375H119.324ZM112.357 23.6375V22.7666H111.486V23.6375H112.357ZM112.357 27.121V27.9919H113.228V27.121H112.357ZM112.357 21.8958H111.486V22.7666H112.357V21.8958ZM117.582 21.8958V22.7666H118.453V21.8958H117.582ZM117.582 16.6705H118.453V15.7996H117.582V16.6705ZM112.357 16.6705V15.7996H111.486V16.6705H112.357ZM108.874 27.121H109.744V14.9287H108.874H108.003V27.121H108.874ZM108.874 14.9287V15.7996H119.324V14.9287V14.0578H108.874V14.9287ZM119.324 14.9287H118.453V16.6705H119.324H120.195V14.9287H119.324ZM119.324 16.6705V17.5414H121.066V16.6705V15.7996H119.324V16.6705ZM121.066 16.6705H120.195V21.8958H121.066H121.937V16.6705H121.066ZM121.066 21.8958V21.0249H119.324V21.8958V22.7666H121.066V21.8958ZM119.324 21.8958H118.453V23.6375H119.324H120.195V21.8958H119.324ZM119.324 23.6375V22.7666H112.357V23.6375V24.5084H119.324V23.6375ZM112.357 23.6375H111.486V27.121H112.357H113.228V23.6375H112.357ZM112.357 27.121V26.2502H108.874V27.121V27.9919H112.357V27.121ZM112.357 21.8958V22.7666H117.582V21.8958V21.0249H112.357V21.8958ZM117.582 21.8958H118.453V16.6705H117.582H116.711V21.8958H117.582ZM117.582 16.6705V15.7996H112.357V16.6705V17.5414H117.582V16.6705ZM112.357 16.6705H111.486V21.8958H112.357H113.228V16.6705H112.357Z" fill="#281A25" mask="url(#path-2-outside-1_121_6844)"/>
    <rect x="10.4507" y="35.6348" width="121.052" height="3.48352" fill="#B37B0D"/>
    <rect x="6.9668" y="32.1514" width="3.48352" height="3.48352" fill="#B37B0D"/>
    <rect width="121.052" height="3.48352" transform="matrix(1 0 0 -1 10.4507 7.7666)" fill="#E5C179"/>
    <rect width="3.48352" height="3.48352" transform="matrix(1 0 0 -1 6.9668 11.2502)" fill="#E5C179"/>
    <rect x="3.4834" y="11.2502" width="8.70879" height="20.9011" fill="#D0941C"/>
    <rect width="3.48352" height="3.48352" transform="matrix(-1 0 0 1 131.503 35.6348)" fill="#B37B0D"/>
    <rect width="3.48352" height="3.48352" transform="matrix(-1 0 0 1 134.986 32.1514)" fill="#B37B0D"/>
    <rect x="131.503" y="7.7666" width="3.48352" height="3.48352" transform="rotate(180 131.503 7.7666)" fill="#E5C179"/>
    <rect x="136.728" y="11.2502" width="5.22527" height="3.48352" transform="rotate(180 136.728 11.2502)" fill="#D0941C"/>
    <rect width="8.70879" height="20.9011" transform="matrix(-1 0 0 1 140.211 11.2502)" fill="#D0941C"/>
    <rect x="10.4507" y="0.799561" width="121.052" height="3.48352" fill="black"/>
    <rect x="10.4507" y="39.1184" width="121.052" height="3.48352" fill="black"/>
    <rect x="6.9668" y="35.6348" width="3.48352" height="3.48352" fill="black"/>
    <rect width="3.48352" height="3.48352" transform="matrix(-1 0 0 1 134.986 35.6348)" fill="black"/>
    <rect x="6.9668" y="4.2832" width="3.48352" height="3.48352" fill="black"/>
    <rect width="3.48352" height="3.48352" transform="matrix(-1 0 0 1 134.986 4.2832)" fill="black"/>
    <rect x="3.4834" y="32.1514" width="3.48352" height="3.48352" fill="black"/>
    <rect width="3.48352" height="3.48352" transform="matrix(-1 0 0 1 138.47 32.1514)" fill="black"/>
    <rect x="3.4834" y="7.7666" width="3.48352" height="3.48352" fill="black"/>
    <rect width="3.48352" height="3.48352" transform="matrix(-1 0 0 1 138.47 7.7666)" fill="black"/>
    <rect y="11.2502" width="3.48352" height="20.9011" fill="black"/>
    <rect width="3.48352" height="20.9011" transform="matrix(-1 0 0 1 141.953 11.2502)" fill="black"/>
    </svg>
    