<svg width="210" height="43" viewBox="0 0 210 43" fill="none" xmlns="http://www.w3.org/2000/svg">
    <rect x="6.54785" y="0.799561" width="199.431" height="41.8022" rx="20.9011" fill="#D0941C"/>
    <mask id="path-2-outside-1_121_6871" maskUnits="userSpaceOnUse" x="18.1758" y="13.8628" width="177" height="15" fill="black">
    <rect fill="white" x="18.1758" y="13.8628" width="177" height="15"/>
    <path d="M19.4731 27.121V14.9287H22.9567V20.154H28.1819V14.9287H31.6655V27.121H28.1819V21.8958H22.9567V27.121H19.4731ZM35.985 27.121V25.3793H34.2433V16.6705H35.985V14.9287H44.6938V16.6705H46.4356V25.3793H44.6938V27.121H35.985ZM37.7268 25.3793H42.952V16.6705H37.7268V25.3793ZM50.7551 27.121V25.3793H49.0134V14.9287H52.4969V21.8958H54.2386V14.9287H55.9804V21.8958H57.7222V14.9287H61.2057V25.3793H59.4639V27.121H57.7222V25.3793H55.9804V23.6375H54.2386V25.3793H52.4969V27.121H50.7551ZM80.2953 27.121V25.3793H83.7789V16.6705H80.2953V14.9287H90.7459V16.6705H87.2624V25.3793H90.7459V27.121H80.2953ZM98.549 27.121V16.6705H95.0655V14.9287H105.516V16.6705H102.032V27.121H98.549ZM124.606 27.121V25.3793H122.864V14.9287H126.347V21.8958H128.089V14.9287H129.831V21.8958H131.573V14.9287H135.056V25.3793H133.314V27.121H131.573V25.3793H129.831V23.6375H128.089V25.3793H126.347V27.121H124.606ZM139.376 27.121V25.3793H137.634V16.6705H139.376V14.9287H148.085V16.6705H149.826V25.3793H148.085V27.121H139.376ZM141.118 25.3793H146.343V16.6705H141.118V25.3793ZM152.404 27.121V14.9287H162.855V16.6705H164.596V21.8958H161.113V23.6375H162.855V25.3793H164.596V27.121H159.371V25.3793H157.629V23.6375H155.888V27.121H152.404ZM155.888 21.8958H159.371V20.154H161.113V16.6705H155.888V21.8958ZM167.174 27.121V14.9287H170.658V20.154H172.4V18.4122H174.141V16.6705H175.883V14.9287H179.367V16.6705H177.625V18.4122H175.883V20.154H174.141V21.8958H175.883V23.6375H177.625V25.3793H179.367V27.121H174.141V25.3793H172.4V23.6375H170.658V27.121H167.174ZM183.686 27.121V25.3793H181.944V23.6375H185.428V25.3793H190.653V21.8958H183.686V20.154H181.944V16.6705H183.686V14.9287H192.395V16.6705H194.137V18.4122H190.653V16.6705H185.428V20.154H192.395V21.8958H194.137V25.3793H192.395V27.121H183.686Z"/>
    </mask>
    <path d="M19.4731 27.121V14.9287H22.9567V20.154H28.1819V14.9287H31.6655V27.121H28.1819V21.8958H22.9567V27.121H19.4731ZM35.985 27.121V25.3793H34.2433V16.6705H35.985V14.9287H44.6938V16.6705H46.4356V25.3793H44.6938V27.121H35.985ZM37.7268 25.3793H42.952V16.6705H37.7268V25.3793ZM50.7551 27.121V25.3793H49.0134V14.9287H52.4969V21.8958H54.2386V14.9287H55.9804V21.8958H57.7222V14.9287H61.2057V25.3793H59.4639V27.121H57.7222V25.3793H55.9804V23.6375H54.2386V25.3793H52.4969V27.121H50.7551ZM80.2953 27.121V25.3793H83.7789V16.6705H80.2953V14.9287H90.7459V16.6705H87.2624V25.3793H90.7459V27.121H80.2953ZM98.549 27.121V16.6705H95.0655V14.9287H105.516V16.6705H102.032V27.121H98.549ZM124.606 27.121V25.3793H122.864V14.9287H126.347V21.8958H128.089V14.9287H129.831V21.8958H131.573V14.9287H135.056V25.3793H133.314V27.121H131.573V25.3793H129.831V23.6375H128.089V25.3793H126.347V27.121H124.606ZM139.376 27.121V25.3793H137.634V16.6705H139.376V14.9287H148.085V16.6705H149.826V25.3793H148.085V27.121H139.376ZM141.118 25.3793H146.343V16.6705H141.118V25.3793ZM152.404 27.121V14.9287H162.855V16.6705H164.596V21.8958H161.113V23.6375H162.855V25.3793H164.596V27.121H159.371V25.3793H157.629V23.6375H155.888V27.121H152.404ZM155.888 21.8958H159.371V20.154H161.113V16.6705H155.888V21.8958ZM167.174 27.121V14.9287H170.658V20.154H172.4V18.4122H174.141V16.6705H175.883V14.9287H179.367V16.6705H177.625V18.4122H175.883V20.154H174.141V21.8958H175.883V23.6375H177.625V25.3793H179.367V27.121H174.141V25.3793H172.4V23.6375H170.658V27.121H167.174ZM183.686 27.121V25.3793H181.944V23.6375H185.428V25.3793H190.653V21.8958H183.686V20.154H181.944V16.6705H183.686V14.9287H192.395V16.6705H194.137V18.4122H190.653V16.6705H185.428V20.154H192.395V21.8958H194.137V25.3793H192.395V27.121H183.686Z" fill="#F8DDA1"/>
    <path d="M19.4731 27.121H18.6023V27.9919H19.4731V27.121ZM19.4731 14.9287V14.0578H18.6023V14.9287H19.4731ZM22.9567 14.9287H23.8275V14.0578H22.9567V14.9287ZM22.9567 20.154H22.0858V21.0249H22.9567V20.154ZM28.1819 20.154V21.0249H29.0528V20.154H28.1819ZM28.1819 14.9287V14.0578H27.3111V14.9287H28.1819ZM31.6655 14.9287H32.5363V14.0578H31.6655V14.9287ZM31.6655 27.121V27.9919H32.5363V27.121H31.6655ZM28.1819 27.121H27.3111V27.9919H28.1819V27.121ZM28.1819 21.8958H29.0528V21.0249H28.1819V21.8958ZM22.9567 21.8958V21.0249H22.0858V21.8958H22.9567ZM22.9567 27.121V27.9919H23.8275V27.121H22.9567ZM19.4731 27.121H20.344V14.9287H19.4731H18.6023V27.121H19.4731ZM19.4731 14.9287V15.7996H22.9567V14.9287V14.0578H19.4731V14.9287ZM22.9567 14.9287H22.0858V20.154H22.9567H23.8275V14.9287H22.9567ZM22.9567 20.154V21.0249H28.1819V20.154V19.2831H22.9567V20.154ZM28.1819 20.154H29.0528V14.9287H28.1819H27.3111V20.154H28.1819ZM28.1819 14.9287V15.7996H31.6655V14.9287V14.0578H28.1819V14.9287ZM31.6655 14.9287H30.7946V27.121H31.6655H32.5363V14.9287H31.6655ZM31.6655 27.121V26.2502H28.1819V27.121V27.9919H31.6655V27.121ZM28.1819 27.121H29.0528V21.8958H28.1819H27.3111V27.121H28.1819ZM28.1819 21.8958V21.0249H22.9567V21.8958V22.7666H28.1819V21.8958ZM22.9567 21.8958H22.0858V27.121H22.9567H23.8275V21.8958H22.9567ZM22.9567 27.121V26.2502H19.4731V27.121V27.9919H22.9567V27.121ZM35.985 27.121H35.1141V27.9919H35.985V27.121ZM35.985 25.3793H36.8559V24.5084H35.985V25.3793ZM34.2433 25.3793H33.3724V26.2502H34.2433V25.3793ZM34.2433 16.6705V15.7996H33.3724V16.6705H34.2433ZM35.985 16.6705V17.5414H36.8559V16.6705H35.985ZM35.985 14.9287V14.0578H35.1141V14.9287H35.985ZM44.6938 14.9287H45.5647V14.0578H44.6938V14.9287ZM44.6938 16.6705H43.8229V17.5414H44.6938V16.6705ZM46.4356 16.6705H47.3064V15.7996H46.4356V16.6705ZM46.4356 25.3793V26.2502H47.3064V25.3793H46.4356ZM44.6938 25.3793V24.5084H43.8229V25.3793H44.6938ZM44.6938 27.121V27.9919H45.5647V27.121H44.6938ZM37.7268 25.3793H36.8559V26.2502H37.7268V25.3793ZM42.952 25.3793V26.2502H43.8229V25.3793H42.952ZM42.952 16.6705H43.8229V15.7996H42.952V16.6705ZM37.7268 16.6705V15.7996H36.8559V16.6705H37.7268ZM35.985 27.121H36.8559V25.3793H35.985H35.1141V27.121H35.985ZM35.985 25.3793V24.5084H34.2433V25.3793V26.2502H35.985V25.3793ZM34.2433 25.3793H35.1141V16.6705H34.2433H33.3724V25.3793H34.2433ZM34.2433 16.6705V17.5414H35.985V16.6705V15.7996H34.2433V16.6705ZM35.985 16.6705H36.8559V14.9287H35.985H35.1141V16.6705H35.985ZM35.985 14.9287V15.7996H44.6938V14.9287V14.0578H35.985V14.9287ZM44.6938 14.9287H43.8229V16.6705H44.6938H45.5647V14.9287H44.6938ZM44.6938 16.6705V17.5414H46.4356V16.6705V15.7996H44.6938V16.6705ZM46.4356 16.6705H45.5647V25.3793H46.4356H47.3064V16.6705H46.4356ZM46.4356 25.3793V24.5084H44.6938V25.3793V26.2502H46.4356V25.3793ZM44.6938 25.3793H43.8229V27.121H44.6938H45.5647V25.3793H44.6938ZM44.6938 27.121V26.2502H35.985V27.121V27.9919H44.6938V27.121ZM37.7268 25.3793V26.2502H42.952V25.3793V24.5084H37.7268V25.3793ZM42.952 25.3793H43.8229V16.6705H42.952H42.0812V25.3793H42.952ZM42.952 16.6705V15.7996H37.7268V16.6705V17.5414H42.952V16.6705ZM37.7268 16.6705H36.8559V25.3793H37.7268H38.5977V16.6705H37.7268ZM50.7551 27.121H49.8842V27.9919H50.7551V27.121ZM50.7551 25.3793H51.626V24.5084H50.7551V25.3793ZM49.0134 25.3793H48.1425V26.2502H49.0134V25.3793ZM49.0134 14.9287V14.0578H48.1425V14.9287H49.0134ZM52.4969 14.9287H53.3678V14.0578H52.4969V14.9287ZM52.4969 21.8958H51.626V22.7666H52.4969V21.8958ZM54.2386 21.8958V22.7666H55.1095V21.8958H54.2386ZM54.2386 14.9287V14.0578H53.3678V14.9287H54.2386ZM55.9804 14.9287H56.8513V14.0578H55.9804V14.9287ZM55.9804 21.8958H55.1095V22.7666H55.9804V21.8958ZM57.7222 21.8958V22.7666H58.593V21.8958H57.7222ZM57.7222 14.9287V14.0578H56.8513V14.9287H57.7222ZM61.2057 14.9287H62.0766V14.0578H61.2057V14.9287ZM61.2057 25.3793V26.2502H62.0766V25.3793H61.2057ZM59.4639 25.3793V24.5084H58.593V25.3793H59.4639ZM59.4639 27.121V27.9919H60.3348V27.121H59.4639ZM57.7222 27.121H56.8513V27.9919H57.7222V27.121ZM57.7222 25.3793H58.593V24.5084H57.7222V25.3793ZM55.9804 25.3793H55.1095V26.2502H55.9804V25.3793ZM55.9804 23.6375H56.8513V22.7666H55.9804V23.6375ZM54.2386 23.6375V22.7666H53.3678V23.6375H54.2386ZM54.2386 25.3793V26.2502H55.1095V25.3793H54.2386ZM52.4969 25.3793V24.5084H51.626V25.3793H52.4969ZM52.4969 27.121V27.9919H53.3678V27.121H52.4969ZM50.7551 27.121H51.626V25.3793H50.7551H49.8842V27.121H50.7551ZM50.7551 25.3793V24.5084H49.0134V25.3793V26.2502H50.7551V25.3793ZM49.0134 25.3793H49.8842V14.9287H49.0134H48.1425V25.3793H49.0134ZM49.0134 14.9287V15.7996H52.4969V14.9287V14.0578H49.0134V14.9287ZM52.4969 14.9287H51.626V21.8958H52.4969H53.3678V14.9287H52.4969ZM52.4969 21.8958V22.7666H54.2386V21.8958V21.0249H52.4969V21.8958ZM54.2386 21.8958H55.1095V14.9287H54.2386H53.3678V21.8958H54.2386ZM54.2386 14.9287V15.7996H55.9804V14.9287V14.0578H54.2386V14.9287ZM55.9804 14.9287H55.1095V21.8958H55.9804H56.8513V14.9287H55.9804ZM55.9804 21.8958V22.7666H57.7222V21.8958V21.0249H55.9804V21.8958ZM57.7222 21.8958H58.593V14.9287H57.7222H56.8513V21.8958H57.7222ZM57.7222 14.9287V15.7996H61.2057V14.9287V14.0578H57.7222V14.9287ZM61.2057 14.9287H60.3348V25.3793H61.2057H62.0766V14.9287H61.2057ZM61.2057 25.3793V24.5084H59.4639V25.3793V26.2502H61.2057V25.3793ZM59.4639 25.3793H58.593V27.121H59.4639H60.3348V25.3793H59.4639ZM59.4639 27.121V26.2502H57.7222V27.121V27.9919H59.4639V27.121ZM57.7222 27.121H58.593V25.3793H57.7222H56.8513V27.121H57.7222ZM57.7222 25.3793V24.5084H55.9804V25.3793V26.2502H57.7222V25.3793ZM55.9804 25.3793H56.8513V23.6375H55.9804H55.1095V25.3793H55.9804ZM55.9804 23.6375V22.7666H54.2386V23.6375V24.5084H55.9804V23.6375ZM54.2386 23.6375H53.3678V25.3793H54.2386H55.1095V23.6375H54.2386ZM54.2386 25.3793V24.5084H52.4969V25.3793V26.2502H54.2386V25.3793ZM52.4969 25.3793H51.626V27.121H52.4969H53.3678V25.3793H52.4969ZM52.4969 27.121V26.2502H50.7551V27.121V27.9919H52.4969V27.121ZM80.2953 27.121H79.4245V27.9919H80.2953V27.121ZM80.2953 25.3793V24.5084H79.4245V25.3793H80.2953ZM83.7789 25.3793V26.2502H84.6497V25.3793H83.7789ZM83.7789 16.6705H84.6497V15.7996H83.7789V16.6705ZM80.2953 16.6705H79.4245V17.5414H80.2953V16.6705ZM80.2953 14.9287V14.0578H79.4245V14.9287H80.2953ZM90.7459 14.9287H91.6168V14.0578H90.7459V14.9287ZM90.7459 16.6705V17.5414H91.6168V16.6705H90.7459ZM87.2624 16.6705V15.7996H86.3915V16.6705H87.2624ZM87.2624 25.3793H86.3915V26.2502H87.2624V25.3793ZM90.7459 25.3793H91.6168V24.5084H90.7459V25.3793ZM90.7459 27.121V27.9919H91.6168V27.121H90.7459ZM80.2953 27.121H81.1662V25.3793H80.2953H79.4245V27.121H80.2953ZM80.2953 25.3793V26.2502H83.7789V25.3793V24.5084H80.2953V25.3793ZM83.7789 25.3793H84.6497V16.6705H83.7789H82.908V25.3793H83.7789ZM83.7789 16.6705V15.7996H80.2953V16.6705V17.5414H83.7789V16.6705ZM80.2953 16.6705H81.1662V14.9287H80.2953H79.4245V16.6705H80.2953ZM80.2953 14.9287V15.7996H90.7459V14.9287V14.0578H80.2953V14.9287ZM90.7459 14.9287H89.875V16.6705H90.7459H91.6168V14.9287H90.7459ZM90.7459 16.6705V15.7996H87.2624V16.6705V17.5414H90.7459V16.6705ZM87.2624 16.6705H86.3915V25.3793H87.2624H88.1333V16.6705H87.2624ZM87.2624 25.3793V26.2502H90.7459V25.3793V24.5084H87.2624V25.3793ZM90.7459 25.3793H89.875V27.121H90.7459H91.6168V25.3793H90.7459ZM90.7459 27.121V26.2502H80.2953V27.121V27.9919H90.7459V27.121ZM98.549 27.121H97.6781V27.9919H98.549V27.121ZM98.549 16.6705H99.4198V15.7996H98.549V16.6705ZM95.0655 16.6705H94.1946V17.5414H95.0655V16.6705ZM95.0655 14.9287V14.0578H94.1946V14.9287H95.0655ZM105.516 14.9287H106.387V14.0578H105.516V14.9287ZM105.516 16.6705V17.5414H106.387V16.6705H105.516ZM102.032 16.6705V15.7996H101.162V16.6705H102.032ZM102.032 27.121V27.9919H102.903V27.121H102.032ZM98.549 27.121H99.4198V16.6705H98.549H97.6781V27.121H98.549ZM98.549 16.6705V15.7996H95.0655V16.6705V17.5414H98.549V16.6705ZM95.0655 16.6705H95.9363V14.9287H95.0655H94.1946V16.6705H95.0655ZM95.0655 14.9287V15.7996H105.516V14.9287V14.0578H95.0655V14.9287ZM105.516 14.9287H104.645V16.6705H105.516H106.387V14.9287H105.516ZM105.516 16.6705V15.7996H102.032V16.6705V17.5414H105.516V16.6705ZM102.032 16.6705H101.162V27.121H102.032H102.903V16.6705H102.032ZM102.032 27.121V26.2502H98.549V27.121V27.9919H102.032V27.121ZM124.606 27.121H123.735V27.9919H124.606V27.121ZM124.606 25.3793H125.477V24.5084H124.606V25.3793ZM122.864 25.3793H121.993V26.2502H122.864V25.3793ZM122.864 14.9287V14.0578H121.993V14.9287H122.864ZM126.347 14.9287H127.218V14.0578H126.347V14.9287ZM126.347 21.8958H125.477V22.7666H126.347V21.8958ZM128.089 21.8958V22.7666H128.96V21.8958H128.089ZM128.089 14.9287V14.0578H127.218V14.9287H128.089ZM129.831 14.9287H130.702V14.0578H129.831V14.9287ZM129.831 21.8958H128.96V22.7666H129.831V21.8958ZM131.573 21.8958V22.7666H132.444V21.8958H131.573ZM131.573 14.9287V14.0578H130.702V14.9287H131.573ZM135.056 14.9287H135.927V14.0578H135.056V14.9287ZM135.056 25.3793V26.2502H135.927V25.3793H135.056ZM133.314 25.3793V24.5084H132.444V25.3793H133.314ZM133.314 27.121V27.9919H134.185V27.121H133.314ZM131.573 27.121H130.702V27.9919H131.573V27.121ZM131.573 25.3793H132.444V24.5084H131.573V25.3793ZM129.831 25.3793H128.96V26.2502H129.831V25.3793ZM129.831 23.6375H130.702V22.7666H129.831V23.6375ZM128.089 23.6375V22.7666H127.218V23.6375H128.089ZM128.089 25.3793V26.2502H128.96V25.3793H128.089ZM126.347 25.3793V24.5084H125.477V25.3793H126.347ZM126.347 27.121V27.9919H127.218V27.121H126.347ZM124.606 27.121H125.477V25.3793H124.606H123.735V27.121H124.606ZM124.606 25.3793V24.5084H122.864V25.3793V26.2502H124.606V25.3793ZM122.864 25.3793H123.735V14.9287H122.864H121.993V25.3793H122.864ZM122.864 14.9287V15.7996H126.347V14.9287V14.0578H122.864V14.9287ZM126.347 14.9287H125.477V21.8958H126.347H127.218V14.9287H126.347ZM126.347 21.8958V22.7666H128.089V21.8958V21.0249H126.347V21.8958ZM128.089 21.8958H128.96V14.9287H128.089H127.218V21.8958H128.089ZM128.089 14.9287V15.7996H129.831V14.9287V14.0578H128.089V14.9287ZM129.831 14.9287H128.96V21.8958H129.831H130.702V14.9287H129.831ZM129.831 21.8958V22.7666H131.573V21.8958V21.0249H129.831V21.8958ZM131.573 21.8958H132.444V14.9287H131.573H130.702V21.8958H131.573ZM131.573 14.9287V15.7996H135.056V14.9287V14.0578H131.573V14.9287ZM135.056 14.9287H134.185V25.3793H135.056H135.927V14.9287H135.056ZM135.056 25.3793V24.5084H133.314V25.3793V26.2502H135.056V25.3793ZM133.314 25.3793H132.444V27.121H133.314H134.185V25.3793H133.314ZM133.314 27.121V26.2502H131.573V27.121V27.9919H133.314V27.121ZM131.573 27.121H132.444V25.3793H131.573H130.702V27.121H131.573ZM131.573 25.3793V24.5084H129.831V25.3793V26.2502H131.573V25.3793ZM129.831 25.3793H130.702V23.6375H129.831H128.96V25.3793H129.831ZM129.831 23.6375V22.7666H128.089V23.6375V24.5084H129.831V23.6375ZM128.089 23.6375H127.218V25.3793H128.089H128.96V23.6375H128.089ZM128.089 25.3793V24.5084H126.347V25.3793V26.2502H128.089V25.3793ZM126.347 25.3793H125.477V27.121H126.347H127.218V25.3793H126.347ZM126.347 27.121V26.2502H124.606V27.121V27.9919H126.347V27.121ZM139.376 27.121H138.505V27.9919H139.376V27.121ZM139.376 25.3793H140.247V24.5084H139.376V25.3793ZM137.634 25.3793H136.763V26.2502H137.634V25.3793ZM137.634 16.6705V15.7996H136.763V16.6705H137.634ZM139.376 16.6705V17.5414H140.247V16.6705H139.376ZM139.376 14.9287V14.0578H138.505V14.9287H139.376ZM148.085 14.9287H148.955V14.0578H148.085V14.9287ZM148.085 16.6705H147.214V17.5414H148.085V16.6705ZM149.826 16.6705H150.697V15.7996H149.826V16.6705ZM149.826 25.3793V26.2502H150.697V25.3793H149.826ZM148.085 25.3793V24.5084H147.214V25.3793H148.085ZM148.085 27.121V27.9919H148.955V27.121H148.085ZM141.118 25.3793H140.247V26.2502H141.118V25.3793ZM146.343 25.3793V26.2502H147.214V25.3793H146.343ZM146.343 16.6705H147.214V15.7996H146.343V16.6705ZM141.118 16.6705V15.7996H140.247V16.6705H141.118ZM139.376 27.121H140.247V25.3793H139.376H138.505V27.121H139.376ZM139.376 25.3793V24.5084H137.634V25.3793V26.2502H139.376V25.3793ZM137.634 25.3793H138.505V16.6705H137.634H136.763V25.3793H137.634ZM137.634 16.6705V17.5414H139.376V16.6705V15.7996H137.634V16.6705ZM139.376 16.6705H140.247V14.9287H139.376H138.505V16.6705H139.376ZM139.376 14.9287V15.7996H148.085V14.9287V14.0578H139.376V14.9287ZM148.085 14.9287H147.214V16.6705H148.085H148.955V14.9287H148.085ZM148.085 16.6705V17.5414H149.826V16.6705V15.7996H148.085V16.6705ZM149.826 16.6705H148.955V25.3793H149.826H150.697V16.6705H149.826ZM149.826 25.3793V24.5084H148.085V25.3793V26.2502H149.826V25.3793ZM148.085 25.3793H147.214V27.121H148.085H148.955V25.3793H148.085ZM148.085 27.121V26.2502H139.376V27.121V27.9919H148.085V27.121ZM141.118 25.3793V26.2502H146.343V25.3793V24.5084H141.118V25.3793ZM146.343 25.3793H147.214V16.6705H146.343H145.472V25.3793H146.343ZM146.343 16.6705V15.7996H141.118V16.6705V17.5414H146.343V16.6705ZM141.118 16.6705H140.247V25.3793H141.118H141.988V16.6705H141.118ZM152.404 27.121H151.533V27.9919H152.404V27.121ZM152.404 14.9287V14.0578H151.533V14.9287H152.404ZM162.855 14.9287H163.726V14.0578H162.855V14.9287ZM162.855 16.6705H161.984V17.5414H162.855V16.6705ZM164.596 16.6705H165.467V15.7996H164.596V16.6705ZM164.596 21.8958V22.7666H165.467V21.8958H164.596ZM161.113 21.8958V21.0249H160.242V21.8958H161.113ZM161.113 23.6375H160.242V24.5084H161.113V23.6375ZM162.855 23.6375H163.726V22.7666H162.855V23.6375ZM162.855 25.3793H161.984V26.2502H162.855V25.3793ZM164.596 25.3793H165.467V24.5084H164.596V25.3793ZM164.596 27.121V27.9919H165.467V27.121H164.596ZM159.371 27.121H158.5V27.9919H159.371V27.121ZM159.371 25.3793H160.242V24.5084H159.371V25.3793ZM157.629 25.3793H156.759V26.2502H157.629V25.3793ZM157.629 23.6375H158.5V22.7666H157.629V23.6375ZM155.888 23.6375V22.7666H155.017V23.6375H155.888ZM155.888 27.121V27.9919H156.759V27.121H155.888ZM155.888 21.8958H155.017V22.7666H155.888V21.8958ZM159.371 21.8958V22.7666H160.242V21.8958H159.371ZM159.371 20.154V19.2831H158.5V20.154H159.371ZM161.113 20.154V21.0249H161.984V20.154H161.113ZM161.113 16.6705H161.984V15.7996H161.113V16.6705ZM155.888 16.6705V15.7996H155.017V16.6705H155.888ZM152.404 27.121H153.275V14.9287H152.404H151.533V27.121H152.404ZM152.404 14.9287V15.7996H162.855V14.9287V14.0578H152.404V14.9287ZM162.855 14.9287H161.984V16.6705H162.855H163.726V14.9287H162.855ZM162.855 16.6705V17.5414H164.596V16.6705V15.7996H162.855V16.6705ZM164.596 16.6705H163.726V21.8958H164.596H165.467V16.6705H164.596ZM164.596 21.8958V21.0249H161.113V21.8958V22.7666H164.596V21.8958ZM161.113 21.8958H160.242V23.6375H161.113H161.984V21.8958H161.113ZM161.113 23.6375V24.5084H162.855V23.6375V22.7666H161.113V23.6375ZM162.855 23.6375H161.984V25.3793H162.855H163.726V23.6375H162.855ZM162.855 25.3793V26.2502H164.596V25.3793V24.5084H162.855V25.3793ZM164.596 25.3793H163.726V27.121H164.596H165.467V25.3793H164.596ZM164.596 27.121V26.2502H159.371V27.121V27.9919H164.596V27.121ZM159.371 27.121H160.242V25.3793H159.371H158.5V27.121H159.371ZM159.371 25.3793V24.5084H157.629V25.3793V26.2502H159.371V25.3793ZM157.629 25.3793H158.5V23.6375H157.629H156.759V25.3793H157.629ZM157.629 23.6375V22.7666H155.888V23.6375V24.5084H157.629V23.6375ZM155.888 23.6375H155.017V27.121H155.888H156.759V23.6375H155.888ZM155.888 27.121V26.2502H152.404V27.121V27.9919H155.888V27.121ZM155.888 21.8958V22.7666H159.371V21.8958V21.0249H155.888V21.8958ZM159.371 21.8958H160.242V20.154H159.371H158.5V21.8958H159.371ZM159.371 20.154V21.0249H161.113V20.154V19.2831H159.371V20.154ZM161.113 20.154H161.984V16.6705H161.113H160.242V20.154H161.113ZM161.113 16.6705V15.7996H155.888V16.6705V17.5414H161.113V16.6705ZM155.888 16.6705H155.017V21.8958H155.888H156.759V16.6705H155.888ZM167.174 27.121H166.303V27.9919H167.174V27.121ZM167.174 14.9287V14.0578H166.303V14.9287H167.174ZM170.658 14.9287H171.529V14.0578H170.658V14.9287ZM170.658 20.154H169.787V21.0249H170.658V20.154ZM172.4 20.154V21.0249H173.27V20.154H172.4ZM172.4 18.4122V17.5414H171.529V18.4122H172.4ZM174.141 18.4122V19.2831H175.012V18.4122H174.141ZM174.141 16.6705V15.7996H173.27V16.6705H174.141ZM175.883 16.6705V17.5414H176.754V16.6705H175.883ZM175.883 14.9287V14.0578H175.012V14.9287H175.883ZM179.367 14.9287H180.237V14.0578H179.367V14.9287ZM179.367 16.6705V17.5414H180.237V16.6705H179.367ZM177.625 16.6705V15.7996H176.754V16.6705H177.625ZM177.625 18.4122V19.2831H178.496V18.4122H177.625ZM175.883 18.4122V17.5414H175.012V18.4122H175.883ZM175.883 20.154V21.0249H176.754V20.154H175.883ZM174.141 20.154V19.2831H173.27V20.154H174.141ZM174.141 21.8958H173.27V22.7666H174.141V21.8958ZM175.883 21.8958H176.754V21.0249H175.883V21.8958ZM175.883 23.6375H175.012V24.5084H175.883V23.6375ZM177.625 23.6375H178.496V22.7666H177.625V23.6375ZM177.625 25.3793H176.754V26.2502H177.625V25.3793ZM179.367 25.3793H180.237V24.5084H179.367V25.3793ZM179.367 27.121V27.9919H180.237V27.121H179.367ZM174.141 27.121H173.27V27.9919H174.141V27.121ZM174.141 25.3793H175.012V24.5084H174.141V25.3793ZM172.4 25.3793H171.529V26.2502H172.4V25.3793ZM172.4 23.6375H173.27V22.7666H172.4V23.6375ZM170.658 23.6375V22.7666H169.787V23.6375H170.658ZM170.658 27.121V27.9919H171.529V27.121H170.658ZM167.174 27.121H168.045V14.9287H167.174H166.303V27.121H167.174ZM167.174 14.9287V15.7996H170.658V14.9287V14.0578H167.174V14.9287ZM170.658 14.9287H169.787V20.154H170.658H171.529V14.9287H170.658ZM170.658 20.154V21.0249H172.4V20.154V19.2831H170.658V20.154ZM172.4 20.154H173.27V18.4122H172.4H171.529V20.154H172.4ZM172.4 18.4122V19.2831H174.141V18.4122V17.5414H172.4V18.4122ZM174.141 18.4122H175.012V16.6705H174.141H173.27V18.4122H174.141ZM174.141 16.6705V17.5414H175.883V16.6705V15.7996H174.141V16.6705ZM175.883 16.6705H176.754V14.9287H175.883H175.012V16.6705H175.883ZM175.883 14.9287V15.7996H179.367V14.9287V14.0578H175.883V14.9287ZM179.367 14.9287H178.496V16.6705H179.367H180.237V14.9287H179.367ZM179.367 16.6705V15.7996H177.625V16.6705V17.5414H179.367V16.6705ZM177.625 16.6705H176.754V18.4122H177.625H178.496V16.6705H177.625ZM177.625 18.4122V17.5414H175.883V18.4122V19.2831H177.625V18.4122ZM175.883 18.4122H175.012V20.154H175.883H176.754V18.4122H175.883ZM175.883 20.154V19.2831H174.141V20.154V21.0249H175.883V20.154ZM174.141 20.154H173.27V21.8958H174.141H175.012V20.154H174.141ZM174.141 21.8958V22.7666H175.883V21.8958V21.0249H174.141V21.8958ZM175.883 21.8958H175.012V23.6375H175.883H176.754V21.8958H175.883ZM175.883 23.6375V24.5084H177.625V23.6375V22.7666H175.883V23.6375ZM177.625 23.6375H176.754V25.3793H177.625H178.496V23.6375H177.625ZM177.625 25.3793V26.2502H179.367V25.3793V24.5084H177.625V25.3793ZM179.367 25.3793H178.496V27.121H179.367H180.237V25.3793H179.367ZM179.367 27.121V26.2502H174.141V27.121V27.9919H179.367V27.121ZM174.141 27.121H175.012V25.3793H174.141H173.27V27.121H174.141ZM174.141 25.3793V24.5084H172.4V25.3793V26.2502H174.141V25.3793ZM172.4 25.3793H173.27V23.6375H172.4H171.529V25.3793H172.4ZM172.4 23.6375V22.7666H170.658V23.6375V24.5084H172.4V23.6375ZM170.658 23.6375H169.787V27.121H170.658H171.529V23.6375H170.658ZM170.658 27.121V26.2502H167.174V27.121V27.9919H170.658V27.121ZM183.686 27.121H182.815V27.9919H183.686V27.121ZM183.686 25.3793H184.557V24.5084H183.686V25.3793ZM181.944 25.3793H181.073V26.2502H181.944V25.3793ZM181.944 23.6375V22.7666H181.073V23.6375H181.944ZM185.428 23.6375H186.299V22.7666H185.428V23.6375ZM185.428 25.3793H184.557V26.2502H185.428V25.3793ZM190.653 25.3793V26.2502H191.524V25.3793H190.653ZM190.653 21.8958H191.524V21.0249H190.653V21.8958ZM183.686 21.8958H182.815V22.7666H183.686V21.8958ZM183.686 20.154H184.557V19.2831H183.686V20.154ZM181.944 20.154H181.073V21.0249H181.944V20.154ZM181.944 16.6705V15.7996H181.073V16.6705H181.944ZM183.686 16.6705V17.5414H184.557V16.6705H183.686ZM183.686 14.9287V14.0578H182.815V14.9287H183.686ZM192.395 14.9287H193.266V14.0578H192.395V14.9287ZM192.395 16.6705H191.524V17.5414H192.395V16.6705ZM194.137 16.6705H195.008V15.7996H194.137V16.6705ZM194.137 18.4122V19.2831H195.008V18.4122H194.137ZM190.653 18.4122H189.782V19.2831H190.653V18.4122ZM190.653 16.6705H191.524V15.7996H190.653V16.6705ZM185.428 16.6705V15.7996H184.557V16.6705H185.428ZM185.428 20.154H184.557V21.0249H185.428V20.154ZM192.395 20.154H193.266V19.2831H192.395V20.154ZM192.395 21.8958H191.524V22.7666H192.395V21.8958ZM194.137 21.8958H195.008V21.0249H194.137V21.8958ZM194.137 25.3793V26.2502H195.008V25.3793H194.137ZM192.395 25.3793V24.5084H191.524V25.3793H192.395ZM192.395 27.121V27.9919H193.266V27.121H192.395ZM183.686 27.121H184.557V25.3793H183.686H182.815V27.121H183.686ZM183.686 25.3793V24.5084H181.944V25.3793V26.2502H183.686V25.3793ZM181.944 25.3793H182.815V23.6375H181.944H181.073V25.3793H181.944ZM181.944 23.6375V24.5084H185.428V23.6375V22.7666H181.944V23.6375ZM185.428 23.6375H184.557V25.3793H185.428H186.299V23.6375H185.428ZM185.428 25.3793V26.2502H190.653V25.3793V24.5084H185.428V25.3793ZM190.653 25.3793H191.524V21.8958H190.653H189.782V25.3793H190.653ZM190.653 21.8958V21.0249H183.686V21.8958V22.7666H190.653V21.8958ZM183.686 21.8958H184.557V20.154H183.686H182.815V21.8958H183.686ZM183.686 20.154V19.2831H181.944V20.154V21.0249H183.686V20.154ZM181.944 20.154H182.815V16.6705H181.944H181.073V20.154H181.944ZM181.944 16.6705V17.5414H183.686V16.6705V15.7996H181.944V16.6705ZM183.686 16.6705H184.557V14.9287H183.686H182.815V16.6705H183.686ZM183.686 14.9287V15.7996H192.395V14.9287V14.0578H183.686V14.9287ZM192.395 14.9287H191.524V16.6705H192.395H193.266V14.9287H192.395ZM192.395 16.6705V17.5414H194.137V16.6705V15.7996H192.395V16.6705ZM194.137 16.6705H193.266V18.4122H194.137H195.008V16.6705H194.137ZM194.137 18.4122V17.5414H190.653V18.4122V19.2831H194.137V18.4122ZM190.653 18.4122H191.524V16.6705H190.653H189.782V18.4122H190.653ZM190.653 16.6705V15.7996H185.428V16.6705V17.5414H190.653V16.6705ZM185.428 16.6705H184.557V20.154H185.428H186.299V16.6705H185.428ZM185.428 20.154V21.0249H192.395V20.154V19.2831H185.428V20.154ZM192.395 20.154H191.524V21.8958H192.395H193.266V20.154H192.395ZM192.395 21.8958V22.7666H194.137V21.8958V21.0249H192.395V21.8958ZM194.137 21.8958H193.266V25.3793H194.137H195.008V21.8958H194.137ZM194.137 25.3793V24.5084H192.395V25.3793V26.2502H194.137V25.3793ZM192.395 25.3793H191.524V27.121H192.395H193.266V25.3793H192.395ZM192.395 27.121V26.2502H183.686V27.121V27.9919H192.395V27.121Z" fill="#281A25" mask="url(#path-2-outside-1_121_6871)"/>
    <rect x="11.3379" y="35.6348" width="188.11" height="3.48352" fill="#B37B0D"/>
    <rect x="7.85449" y="32.1514" width="3.48352" height="3.48352" fill="#B37B0D"/>
    <rect width="188.11" height="3.48352" transform="matrix(1 0 0 -1 11.3379 7.7666)" fill="#E5C179"/>
    <rect width="3.48352" height="3.48352" transform="matrix(1 0 0 -1 7.85449 11.2502)" fill="#E5C179"/>
    <rect x="4.37109" y="11.2502" width="8.70879" height="20.9011" fill="#D0941C"/>
    <rect width="3.48352" height="3.48352" transform="matrix(-1 0 0 1 132.39 35.6348)" fill="#B37B0D"/>
    <rect width="3.48352" height="3.48352" transform="matrix(-1 0 0 1 202.931 32.1514)" fill="#B37B0D"/>
    <rect x="132.39" y="7.7666" width="3.48352" height="3.48352" transform="rotate(180 132.39 7.7666)" fill="#E5C179"/>
    <rect x="202.931" y="11.2502" width="5.22527" height="3.48352" transform="rotate(180 202.931 11.2502)" fill="#D0941C"/>
    <rect width="8.70879" height="20.9011" transform="matrix(-1 0 0 1 206.415 11.2502)" fill="#D0941C"/>
    <rect x="11.3413" y="0.799561" width="188.11" height="3.48352" fill="black"/>
    <rect x="11.3413" y="39.1184" width="188.11" height="3.48352" fill="black"/>
    <rect x="7.85449" y="35.6348" width="3.48352" height="3.48352" fill="black"/>
    <rect width="3.48352" height="3.48352" transform="matrix(-1 0 0 1 202.931 35.6348)" fill="black"/>
    <rect x="7.85449" y="4.2832" width="3.48352" height="3.48352" fill="black"/>
    <rect width="3.48352" height="3.48352" transform="matrix(-1 0 0 1 202.931 4.2832)" fill="black"/>
    <rect x="4.37109" y="32.1514" width="3.48352" height="3.48352" fill="black"/>
    <rect width="3.48352" height="3.48352" transform="matrix(-1 0 0 1 206.415 32.1514)" fill="black"/>
    <rect x="4.37109" y="7.7666" width="3.48352" height="3.48352" fill="black"/>
    <rect width="3.48352" height="3.48352" transform="matrix(-1 0 0 1 206.415 7.7666)" fill="black"/>
    <rect x="0.887207" y="11.2502" width="3.48352" height="20.9011" fill="black"/>
    <rect width="3.48352" height="20.9011" transform="matrix(-1 0 0 1 209.898 11.2502)" fill="black"/>
    </svg>
    