<svg xmlns="http://www.w3.org/2000/svg" xmlns:xlink="http://www.w3.org/1999/xlink" width="500" zoomAndPan="magnify" viewBox="0 0 375 374.999991" height="500" preserveAspectRatio="xMidYMid meet" version="1.2"><defs><clipPath id="047b64613e"><path d="M 12.839844 177 L 352 177 L 352 362 L 12.839844 362 Z M 12.839844 177 "/></clipPath><clipPath id="2a0971b981"><path d="M 175.695312 0 L 375 0 L 375 174.347656 L 175.695312 174.347656 Z M 175.695312 0 "/></clipPath><clipPath id="14c6ffd601"><path d="M 161.359375 52.296875 L 175.695312 52.296875 L 175.695312 117.855469 L 161.359375 117.855469 Z M 161.359375 52.296875 "/></clipPath><clipPath id="9e15e48db3"><path d="M 168 80 L 227 80 L 227 173 L 168 173 Z M 168 80 "/></clipPath><clipPath id="cad20f7ce5"><path d="M 139.335938 92.863281 L 264.761719 0.101562 L 332.996094 92.359375 L 207.570312 185.121094 Z M 139.335938 92.863281 "/></clipPath><clipPath id="365a6372a6"><path d="M 139.335938 92.863281 L 264.761719 0.101562 L 332.996094 92.359375 L 207.570312 185.121094 Z M 139.335938 92.863281 "/></clipPath><clipPath id="45753aad6b"><path d="M 139.335938 92.863281 L 264.761719 0.101562 L 332.996094 92.359375 L 207.570312 185.121094 Z M 139.335938 92.863281 "/></clipPath><clipPath id="3e13885ae4"><path d="M 179 89 L 199 89 L 199 109 L 179 109 Z M 179 89 "/></clipPath><clipPath id="dbb70b68e0"><path d="M 139.335938 92.863281 L 264.761719 0.101562 L 332.996094 92.359375 L 207.570312 185.121094 Z M 139.335938 92.863281 "/></clipPath><clipPath id="f7eb1f7cf9"><path d="M 139.335938 92.863281 L 264.761719 0.101562 L 332.996094 92.359375 L 207.570312 185.121094 Z M 139.335938 92.863281 "/></clipPath><clipPath id="c99acf6299"><path d="M 139.335938 92.863281 L 264.761719 0.101562 L 332.996094 92.359375 L 207.570312 185.121094 Z M 139.335938 92.863281 "/></clipPath><clipPath id="30a2ae6470"><path d="M 223 22 L 254 22 L 254 37 L 223 37 Z M 223 22 "/></clipPath><clipPath id="9cab00d81b"><path d="M 139.335938 92.863281 L 264.761719 0.101562 L 332.996094 92.359375 L 207.570312 185.121094 Z M 139.335938 92.863281 "/></clipPath><clipPath id="a753fbb035"><path d="M 139.335938 92.863281 L 264.761719 0.101562 L 332.996094 92.359375 L 207.570312 185.121094 Z M 139.335938 92.863281 "/></clipPath><clipPath id="defcc3a364"><path d="M 139.335938 92.863281 L 264.761719 0.101562 L 332.996094 92.359375 L 207.570312 185.121094 Z M 139.335938 92.863281 "/></clipPath><clipPath id="9710d04d7c"><path d="M 165 63 L 186 63 L 186 90 L 165 90 Z M 165 63 "/></clipPath><clipPath id="c1efb0243f"><path d="M 139.335938 92.863281 L 264.761719 0.101562 L 332.996094 92.359375 L 207.570312 185.121094 Z M 139.335938 92.863281 "/></clipPath><clipPath id="d9fa07f0a1"><path d="M 139.335938 92.863281 L 264.761719 0.101562 L 332.996094 92.359375 L 207.570312 185.121094 Z M 139.335938 92.863281 "/></clipPath><clipPath id="2ca1c850ae"><path d="M 139.335938 92.863281 L 264.761719 0.101562 L 332.996094 92.359375 L 207.570312 185.121094 Z M 139.335938 92.863281 "/></clipPath><clipPath id="6de3ea76c1"><path d="M 210 71 L 275 71 L 275 131 L 210 131 Z M 210 71 "/></clipPath><clipPath id="bd22097fb4"><path d="M 139.335938 92.863281 L 264.761719 0.101562 L 332.996094 92.359375 L 207.570312 185.121094 Z M 139.335938 92.863281 "/></clipPath><clipPath id="27e6626346"><path d="M 139.335938 92.863281 L 264.761719 0.101562 L 332.996094 92.359375 L 207.570312 185.121094 Z M 139.335938 92.863281 "/></clipPath><clipPath id="79a306f6d8"><path d="M 139.335938 92.863281 L 264.761719 0.101562 L 332.996094 92.359375 L 207.570312 185.121094 Z M 139.335938 92.863281 "/></clipPath><clipPath id="b565c97968"><path d="M 237 29 L 322 29 L 322 101 L 237 101 Z M 237 29 "/></clipPath><clipPath id="017127e3ac"><path d="M 139.335938 92.863281 L 264.761719 0.101562 L 332.996094 92.359375 L 207.570312 185.121094 Z M 139.335938 92.863281 "/></clipPath><clipPath id="48c568c153"><path d="M 139.335938 92.863281 L 264.761719 0.101562 L 332.996094 92.359375 L 207.570312 185.121094 Z M 139.335938 92.863281 "/></clipPath><clipPath id="664d69434f"><path d="M 139.335938 92.863281 L 264.761719 0.101562 L 332.996094 92.359375 L 207.570312 185.121094 Z M 139.335938 92.863281 "/></clipPath><clipPath id="eddc3c2f7c"><path d="M 171 28 L 251 28 L 251 100 L 171 100 Z M 171 28 "/></clipPath><clipPath id="34ed603047"><path d="M 139.335938 92.863281 L 264.761719 0.101562 L 332.996094 92.359375 L 207.570312 185.121094 Z M 139.335938 92.863281 "/></clipPath><clipPath id="aee1be404d"><path d="M 139.335938 92.863281 L 264.761719 0.101562 L 332.996094 92.359375 L 207.570312 185.121094 Z M 139.335938 92.863281 "/></clipPath><clipPath id="0194775fe4"><path d="M 139.335938 92.863281 L 264.761719 0.101562 L 332.996094 92.359375 L 207.570312 185.121094 Z M 139.335938 92.863281 "/></clipPath><clipPath id="4ee9b9518e"><path d="M 196 307 L 231 307 L 231 316.292969 L 196 316.292969 Z M 196 307 "/></clipPath><clipPath id="8099e2e06d"><path d="M 188.25 239 L 202 239 L 202 266 L 188.25 266 Z M 188.25 239 "/></clipPath><clipPath id="b35fcc55ea"><path d="M 197 230.792969 L 230 230.792969 L 230 234 L 197 234 Z M 197 230.792969 "/></clipPath><clipPath id="0d8e0f936c"><path d="M 225 239 L 238.5 239 L 238.5 266 L 225 266 Z M 225 239 "/></clipPath></defs><g id="99a470b626"><rect x="0" width="375" y="0" height="374.999991" style="fill:#ffd600;fill-opacity:1;stroke:none;"/><g clip-rule="nonzero" clip-path="url(#047b64613e)"><path style=" stroke:none;fill-rule:nonzero;fill:#000000;fill-opacity:1;" d="M 146.597656 177.492188 C 145.949219 177.492188 145.40625 178.035156 145.40625 178.683594 L 145.441406 191.511719 L 122.546875 191.511719 C 121.933594 191.511719 121.355469 191.75 120.914062 192.160156 L 117.578125 195.1875 L 13.449219 181.917969 C 13.449219 181.917969 13.449219 181.917969 13.417969 181.917969 C 13.042969 181.917969 12.90625 182.019531 12.871094 182.152344 C 12.839844 182.289062 12.871094 182.390625 12.871094 182.390625 L 12.871094 182.460938 C 12.90625 182.628906 18.078125 199.816406 36.890625 217.75 C 54.203125 234.289062 87.03125 254.875 144.996094 259.265625 L 145.304688 259.300781 L 147.617188 259.46875 C 154.453125 259.945312 161.222656 260.148438 168.367188 260.148438 L 168.4375 260.148438 C 172.722656 260.148438 176.804688 262.15625 179.320312 265.628906 C 181.296875 268.316406 182.894531 271.582031 183.574219 275.429688 C 185.886719 289.007812 176.226562 308.371094 152.515625 314.359375 C 152.855469 314.1875 164.082031 309.082031 169.183594 302.957031 C 169.183594 302.957031 162.621094 301.9375 156.699219 298.332031 C 155.851562 297.820312 154.898438 297.546875 153.910156 297.546875 L 135.949219 297.546875 C 133.601562 297.546875 131.425781 298.738281 130.167969 300.710938 C 126.289062 306.839844 118.839844 322.183594 118.941406 349.886719 L 119.417969 359.175781 C 119.484375 360.773438 120.8125 362 122.410156 362 L 142.683594 362 C 143.5 362 144.25 361.625 144.726562 360.980469 C 146.902344 358.019531 156.496094 349.441406 196.941406 345.019531 C 207.796875 343.828125 218.75 343.828125 229.601562 345.019531 C 270.015625 349.441406 279.640625 358.050781 281.816406 360.980469 C 282.292969 361.625 283.042969 362 283.859375 362 L 304.132812 362 C 305.734375 362 307.023438 360.742188 307.128906 359.175781 L 307.605469 349.886719 C 307.707031 322.183594 300.289062 306.839844 296.410156 300.710938 C 295.152344 298.738281 292.976562 297.546875 290.628906 297.546875 L 272.667969 297.546875 C 271.679688 297.546875 270.726562 297.820312 269.878906 298.332031 C 263.925781 301.9375 257.394531 302.957031 257.394531 302.957031 C 262.496094 309.082031 273.722656 314.1875 274.0625 314.359375 C 250.417969 308.371094 240.722656 289.109375 242.96875 275.53125 C 243.277344 274.441406 243.546875 273.320312 243.820312 272.128906 C 243.820312 272.128906 243.820312 272.09375 243.820312 272.09375 C 244.332031 269.847656 245.113281 267.636719 246.097656 265.492188 C 247.664062 262.089844 249.773438 258.789062 252.324219 255.65625 C 257.324219 249.464844 264.0625 243.816406 271.714844 238.746094 C 296.855469 221.96875 331.925781 211.046875 348.5625 206.484375 L 351.996094 197.058594 L 341.554688 177.664062 L 146.597656 177.664062 Z M 16.410156 183.6875 L 116.046875 199.78125 L 115.675781 212.78125 C 115.675781 212.78125 60.566406 210.296875 16.273438 184.265625 C 16.003906 184.128906 16.105469 183.617188 16.410156 183.6875 Z M 149.25 252.5625 C 146.699219 252.59375 144.113281 252.59375 141.492188 252.492188 C 136.425781 252.324219 131.1875 251.878906 125.914062 251.097656 C 120.640625 250.347656 115.335938 249.328125 110.09375 248.070312 C 104.855469 246.808594 99.6875 245.246094 94.683594 243.542969 C 89.683594 241.84375 84.855469 239.9375 80.226562 237.929688 C 75.636719 235.921875 71.246094 233.8125 67.199219 231.667969 C 63.117188 229.523438 59.339844 227.378906 55.9375 225.304688 C 49.101562 221.152344 43.625 217.304688 39.882812 214.515625 C 36.140625 211.726562 34.132812 209.957031 34.132812 209.957031 L 34.304688 209.753906 C 34.304688 209.753906 36.378906 211.386719 40.222656 214.003906 C 44.066406 216.625 49.679688 220.164062 56.6875 223.941406 C 60.191406 225.8125 64.035156 227.789062 68.152344 229.691406 C 72.269531 231.597656 76.691406 233.503906 81.316406 235.238281 C 85.941406 236.976562 90.773438 238.644531 95.773438 240.074219 C 100.742188 241.5 105.878906 242.761719 111.015625 243.746094 C 116.183594 244.734375 121.355469 245.484375 126.492188 245.960938 C 131.628906 246.4375 136.664062 246.605469 141.5625 246.570312 C 144.386719 246.539062 147.105469 246.402344 149.792969 246.230469 L 151.699219 224.214844 L 152.074219 224.214844 L 153.980469 245.855469 L 154.558594 252.355469 C 152.855469 252.460938 151.054688 252.527344 149.25 252.5625 Z M 144.929688 352.027344 C 144.792969 352.265625 144.726562 352.503906 144.691406 352.777344 L 144.113281 359.449219 L 142.820312 354.648438 C 142.582031 353.730469 141.800781 353.082031 140.882812 352.980469 L 121.253906 350.972656 L 140.78125 349.035156 C 141.152344 349 141.460938 348.832031 141.730469 348.558594 C 144.148438 346.003906 158.027344 332.121094 178.265625 327.324219 C 178.265625 327.324219 167.890625 325.621094 169.152344 324.089844 C 170.375 322.558594 178.199219 314.867188 180.648438 308.675781 C 180.582031 308.949219 177.996094 318.167969 174.558594 322.183594 C 174.421875 322.355469 174.527344 322.59375 174.730469 322.628906 C 177.246094 322.933594 188.472656 324.296875 191.703125 325.621094 C 191.703125 325.691406 153.875 335.96875 144.929688 352.027344 Z M 251.984375 322.21875 C 248.515625 318.203125 245.964844 308.980469 245.859375 308.710938 C 248.308594 314.9375 256.132812 322.59375 257.359375 324.125 C 258.582031 325.65625 248.242188 327.359375 248.242188 327.359375 C 268.484375 332.15625 282.363281 346.039062 284.777344 348.59375 C 285.015625 348.863281 285.355469 349.035156 285.730469 349.070312 L 305.257812 351.007812 L 285.628906 353.015625 C 284.710938 353.117188 283.925781 353.765625 283.65625 354.683594 L 282.363281 359.480469 L 281.785156 352.8125 C 281.75 352.539062 281.683594 352.300781 281.546875 352.0625 C 272.597656 336 234.769531 325.691406 234.769531 325.691406 C 238.035156 324.328125 249.230469 322.96875 251.746094 322.695312 C 252.019531 322.628906 252.121094 322.390625 251.984375 322.21875 Z M 301.308594 190.660156 L 279.980469 191.476562 L 269.332031 191.886719 L 258.6875 192.328125 L 237.355469 193.214844 L 226.707031 193.65625 L 216.0625 194.132812 L 194.765625 195.085938 L 173.472656 196.105469 L 162.824219 196.652344 L 153.808594 197.128906 L 152.109375 209.753906 L 150.167969 195.253906 L 149.898438 193.316406 L 152.039062 193.28125 L 162.722656 193.144531 L 173.402344 192.976562 L 194.730469 192.601562 L 216.0625 192.160156 L 226.710938 191.953125 L 237.355469 191.714844 L 258.6875 191.207031 L 269.332031 190.96875 L 279.980469 190.695312 L 301.308594 190.117188 L 322.640625 189.503906 L 322.640625 189.945312 Z M 301.308594 190.660156 "/></g><path style=" stroke:none;fill-rule:nonzero;fill:#000000;fill-opacity:1;" d="M 360.773438 33.855469 L 351.214844 17.007812 C 349.648438 14.21875 346.078125 13.300781 343.324219 14.933594 L 217.59375 90.34375 L 206.058594 69.992188 C 205.277344 68.632812 204.085938 67.542969 202.660156 66.929688 L 172.960938 54.238281 C 170.070312 53.011719 166.769531 54.851562 166.359375 57.980469 L 162.007812 89.96875 C 161.804688 91.535156 162.109375 93.097656 162.855469 94.460938 L 199.15625 158.503906 C 201.46875 162.621094 206.707031 164.050781 210.789062 161.738281 L 239.125 145.640625 C 243.242188 143.328125 244.671875 138.085938 242.355469 134.003906 L 229.261719 110.898438 L 358.496094 41.679688 C 361.316406 40.183594 362.339844 36.609375 360.773438 33.855469 Z M 230.179688 143.632812 L 230.316406 143.9375 C 230.316406 143.9375 229.160156 144.824219 227.050781 146.253906 C 225.996094 146.96875 224.703125 147.785156 223.207031 148.703125 C 221.707031 149.621094 220.007812 150.644531 218.136719 151.699219 C 217.183594 152.242188 216.230469 152.785156 215.210938 153.332031 C 214.699219 153.605469 214.191406 153.875 213.644531 154.148438 L 213.441406 154.25 L 213.339844 154.285156 C 213.339844 154.285156 213.375 154.25 213.40625 154.25 L 213.339844 154.285156 C 213.167969 154.386719 213 154.488281 212.828125 154.589844 C 212.488281 154.792969 212.082031 154.929688 211.707031 155.066406 C 210.140625 155.613281 208.375 155.679688 206.707031 155.238281 C 205.039062 154.792969 203.441406 153.808594 202.25 152.445312 C 201.945312 152.105469 201.707031 151.765625 201.398438 151.324219 C 201.230469 151.050781 201.058594 150.746094 200.890625 150.472656 C 200.550781 149.894531 200.175781 149.316406 199.800781 148.703125 C 199.085938 147.511719 198.371094 146.320312 197.625 145.128906 C 196.160156 142.714844 194.699219 140.230469 193.234375 137.78125 C 191.773438 135.296875 190.308594 132.84375 188.882812 130.394531 C 187.453125 127.945312 186.058594 125.5625 184.730469 123.214844 C 183.402344 120.902344 182.113281 118.621094 180.886719 116.476562 C 179.695312 114.332031 178.539062 112.292969 177.519531 110.386719 C 176.5 108.480469 175.511719 106.777344 174.695312 105.214844 C 173.878906 103.683594 173.164062 102.320312 172.550781 101.199219 C 171.972656 100.074219 171.53125 99.191406 171.191406 98.613281 C 170.886719 98 170.714844 97.691406 170.714844 97.691406 L 171.023438 97.523438 C 171.023438 97.523438 171.226562 97.828125 171.632812 98.339844 C 172.042969 98.882812 172.621094 99.667969 173.367188 100.722656 C 174.082031 101.742188 174.96875 103 175.988281 104.429688 C 177.007812 105.859375 178.132812 107.492188 179.355469 109.261719 C 180.582031 111.03125 181.90625 112.972656 183.300781 115.015625 C 184.695312 117.054688 186.125 119.199219 187.621094 121.445312 C 189.121094 123.691406 190.648438 126.003906 192.179688 128.386719 C 193.710938 130.769531 195.277344 133.152344 196.839844 135.566406 C 198.371094 137.984375 199.9375 140.398438 201.433594 142.78125 C 202.183594 143.972656 202.929688 145.164062 203.679688 146.320312 C 204.054688 146.898438 204.425781 147.476562 204.765625 148.089844 C 204.9375 148.398438 205.140625 148.667969 205.3125 148.976562 C 205.378906 149.078125 205.550781 149.28125 205.6875 149.453125 C 206.265625 150.097656 207.046875 150.574219 207.863281 150.777344 C 208.679688 150.984375 209.53125 151.015625 210.347656 150.8125 C 210.550781 150.777344 210.753906 150.710938 210.925781 150.644531 C 211.027344 150.609375 211.128906 150.574219 211.195312 150.542969 L 211.265625 150.542969 C 211.535156 150.40625 211.367188 150.507812 211.433594 150.472656 L 211.535156 150.4375 L 211.742188 150.335938 C 212.285156 150.097656 212.828125 149.859375 213.375 149.65625 C 214.429688 149.214844 215.484375 148.773438 216.46875 148.363281 C 218.476562 147.546875 220.3125 146.867188 221.980469 146.289062 C 223.648438 145.675781 225.109375 145.199219 226.300781 144.824219 C 228.75 143.972656 230.179688 143.632812 230.179688 143.632812 Z M 354.277344 38.140625 C 353.902344 39.128906 353.289062 40.046875 352.472656 40.796875 C 352.066406 41.171875 351.621094 41.511719 351.113281 41.78125 C 350.738281 41.988281 350.363281 42.191406 349.988281 42.394531 C 349.242188 42.804688 348.492188 43.210938 347.710938 43.621094 C 341.554688 46.988281 334.339844 50.9375 326.621094 55.15625 C 318.898438 59.34375 310.632812 63.800781 302.398438 68.257812 C 298.25 70.46875 294.132812 72.683594 290.050781 74.859375 C 285.96875 77.039062 281.988281 79.179688 278.074219 81.222656 C 274.199219 83.265625 270.421875 85.238281 266.851562 87.144531 C 263.277344 89.015625 259.910156 90.785156 256.78125 92.386719 C 253.652344 94.019531 250.792969 95.480469 248.242188 96.808594 C 245.691406 98.101562 243.480469 99.257812 241.644531 100.175781 C 237.96875 102.050781 235.894531 103.105469 235.894531 103.105469 L 235.722656 102.765625 C 235.722656 102.765625 237.730469 101.574219 241.269531 99.460938 C 243.039062 98.40625 245.179688 97.148438 247.628906 95.71875 C 250.113281 94.289062 252.867188 92.65625 255.929688 90.886719 C 258.957031 89.117188 262.257812 87.210938 265.761719 85.203125 C 269.265625 83.195312 272.9375 81.085938 276.75 78.910156 C 280.558594 76.695312 284.503906 74.484375 288.519531 72.207031 L 300.699219 65.296875 C 308.863281 60.703125 317.058594 56.109375 324.714844 51.820312 C 332.402344 47.566406 339.582031 43.585938 345.738281 40.183594 C 346.519531 39.773438 347.269531 39.332031 347.984375 38.925781 C 348.355469 38.71875 348.695312 38.515625 349.070312 38.347656 C 349.308594 38.210938 349.480469 38.074219 349.683594 37.902344 C 350.398438 37.222656 350.738281 36.269531 350.773438 35.386719 C 350.773438 35.179688 350.738281 34.941406 350.703125 34.738281 C 350.703125 34.636719 350.671875 34.535156 350.636719 34.433594 C 350.601562 34.332031 350.566406 34.195312 350.535156 34.160156 C 350.261719 33.582031 350.023438 32.933594 349.785156 32.390625 C 349.34375 31.234375 348.933594 30.179688 348.59375 29.191406 C 347.914062 27.253906 347.472656 25.652344 347.199219 24.5625 C 346.929688 23.476562 346.828125 22.863281 346.828125 22.863281 L 347.167969 22.691406 C 347.167969 22.691406 347.574219 23.136719 348.289062 24.019531 C 349.003906 24.90625 349.957031 26.230469 351.078125 27.96875 C 351.65625 28.816406 352.234375 29.804688 352.882812 30.859375 C 353.1875 31.402344 353.527344 31.949219 353.867188 32.527344 C 354.003906 32.765625 354.070312 32.933594 354.175781 33.171875 C 354.277344 33.378906 354.34375 33.617188 354.414062 33.855469 C 354.546875 34.296875 354.617188 34.773438 354.648438 35.285156 C 354.820312 36.132812 354.648438 37.15625 354.277344 38.140625 Z M 354.277344 38.140625 "/><path style=" stroke:none;fill-rule:nonzero;fill:#000000;fill-opacity:1;" d="M 173.503906 138.121094 L 156.5625 128.523438 L 156.324219 128.832031 L 169.59375 143.089844 Z M 173.503906 138.121094 "/><path style=" stroke:none;fill-rule:nonzero;fill:#000000;fill-opacity:1;" d="M 165.714844 147.988281 L 145.984375 149.042969 L 145.949219 149.453125 L 164.863281 155.167969 Z M 165.714844 147.988281 "/><path style=" stroke:none;fill-rule:nonzero;fill:#000000;fill-opacity:1;" d="M 153.671875 171.980469 L 153.875 172.320312 L 171.632812 165.582031 L 168.503906 160.101562 Z M 153.671875 171.980469 "/><g clip-rule="nonzero" clip-path="url(#2a0971b981)"><path style=" stroke:none;fill-rule:nonzero;fill:#ffd600;fill-opacity:1;" d="M 175.695312 0 L 375.242188 0 L 375.242188 174.347656 L 175.695312 174.347656 Z M 175.695312 0 "/></g><g clip-rule="nonzero" clip-path="url(#14c6ffd601)"><path style=" stroke:none;fill-rule:nonzero;fill:#ffd600;fill-opacity:1;" d="M 161.359375 52.296875 L 175.695312 52.296875 L 175.695312 117.875 L 161.359375 117.875 Z M 161.359375 52.296875 "/></g><g clip-rule="nonzero" clip-path="url(#9e15e48db3)"><g clip-rule="nonzero" clip-path="url(#cad20f7ce5)"><g clip-rule="nonzero" clip-path="url(#365a6372a6)"><g clip-rule="nonzero" clip-path="url(#45753aad6b)"><path style=" stroke:none;fill-rule:nonzero;fill:#000000;fill-opacity:1;" d="M 207.398438 103.671875 C 207.414062 103.585938 207.425781 103.5 207.460938 103.394531 C 208.679688 98.035156 207.527344 92.410156 204.246094 87.972656 C 198.214844 79.816406 186.601562 78.074219 177.804688 84.046875 C 173.003906 87.292969 169.277344 93.480469 168.867188 98.851562 C 168.957031 99.742188 169.085938 100.636719 169.28125 101.519531 C 172.140625 114.5 179.226562 139.792969 194.523438 164.957031 C 203.25 179.277344 225.410156 171.847656 223.671875 155.179688 C 223.238281 151.039062 222.65625 147.011719 221.894531 143.304688 C 221.875 143.28125 221.902344 143.261719 221.882812 143.238281 C 221.308594 140.347656 222.191406 137.367188 224.121094 135.140625 L 226.054688 132.910156 C 217.457031 128.859375 205.433594 118.730469 207.398438 103.671875 Z M 196.769531 109.589844 C 191.03125 113.832031 182.933594 112.617188 178.6875 106.875 C 174.441406 101.132812 175.652344 93.035156 181.386719 88.792969 C 187.125 84.550781 195.222656 85.765625 199.46875 91.507812 C 203.691406 97.265625 202.480469 105.363281 196.769531 109.589844 Z M 196.769531 109.589844 "/></g></g></g></g><g clip-rule="nonzero" clip-path="url(#3e13885ae4)"><g clip-rule="nonzero" clip-path="url(#dbb70b68e0)"><g clip-rule="nonzero" clip-path="url(#f7eb1f7cf9)"><g clip-rule="nonzero" clip-path="url(#c99acf6299)"><path style=" stroke:none;fill-rule:nonzero;fill:#000000;fill-opacity:1;" d="M 183.59375 91.773438 C 179.480469 94.816406 178.617188 100.601562 181.644531 104.691406 C 184.6875 108.804688 190.46875 109.671875 194.582031 106.632812 C 198.667969 103.609375 199.558594 97.804688 196.515625 93.691406 C 193.464844 89.621094 187.679688 88.75 183.59375 91.773438 Z M 193.324219 104.933594 C 190.171875 107.261719 185.71875 106.59375 183.382812 103.441406 C 181.050781 100.285156 181.71875 95.828125 184.867188 93.5 C 188.019531 91.167969 192.476562 91.835938 194.808594 94.992188 C 197.140625 98.144531 196.476562 102.601562 193.324219 104.933594 Z M 193.324219 104.933594 "/></g></g></g></g><g clip-rule="nonzero" clip-path="url(#30a2ae6470)"><g clip-rule="nonzero" clip-path="url(#9cab00d81b)"><g clip-rule="nonzero" clip-path="url(#a753fbb035)"><g clip-rule="nonzero" clip-path="url(#defcc3a364)"><path style=" stroke:none;fill-rule:nonzero;fill:#000000;fill-opacity:1;" d="M 253.09375 26.039062 C 250.5 22.582031 245.859375 21.097656 241.65625 22.679688 L 230.921875 26.65625 C 227.074219 28.09375 224.238281 31.371094 223.417969 35.410156 L 223.261719 36.171875 C 229.539062 32.710938 236.992188 29.296875 245.03125 26.933594 C 247.671875 26.125 250.40625 25.855469 253.09375 26.039062 Z M 253.09375 26.039062 "/></g></g></g></g><g clip-rule="nonzero" clip-path="url(#9710d04d7c)"><g clip-rule="nonzero" clip-path="url(#c1efb0243f)"><g clip-rule="nonzero" clip-path="url(#d9fa07f0a1)"><g clip-rule="nonzero" clip-path="url(#2ca1c850ae)"><path style=" stroke:none;fill-rule:nonzero;fill:#000000;fill-opacity:1;" d="M 185.964844 63.71875 L 185.1875 63.644531 C 181.101562 63.273438 177.121094 65 174.621094 68.257812 L 167.695312 77.382812 C 164.96875 80.960938 165.011719 85.808594 167.558594 89.300781 C 168.148438 86.652344 169.207031 84.117188 170.730469 81.847656 C 175.367188 74.832031 180.835938 68.730469 185.964844 63.71875 Z M 185.964844 63.71875 "/></g></g></g></g><g clip-rule="nonzero" clip-path="url(#6de3ea76c1)"><g clip-rule="nonzero" clip-path="url(#bd22097fb4)"><g clip-rule="nonzero" clip-path="url(#27e6626346)"><g clip-rule="nonzero" clip-path="url(#79a306f6d8)"><path style=" stroke:none;fill-rule:nonzero;fill:#000000;fill-opacity:1;" d="M 255.140625 71.296875 C 238.039062 79.332031 222.945312 90.496094 210.253906 104.492188 C 208.703125 118.410156 220.738281 127.578125 228.457031 130.75 C 234.714844 127.113281 243.648438 121.574219 252.683594 114.890625 C 261.695312 108.226562 269.628906 101.289062 274.941406 96.371094 C 274.144531 88.082031 268.898438 73.929688 255.140625 71.296875 Z M 220.71875 106.285156 C 220.574219 106.085938 220.621094 105.785156 220.816406 105.640625 L 223.769531 103.457031 C 223.96875 103.308594 224.269531 103.355469 224.414062 103.550781 L 227.238281 107.371094 C 227.3125 107.46875 227.335938 107.605469 227.339844 107.714844 L 226.957031 110.285156 C 226.9375 110.414062 226.875 110.535156 226.777344 110.609375 C 226.679688 110.683594 226.542969 110.707031 226.414062 110.6875 L 223.84375 110.300781 C 223.714844 110.28125 223.617188 110.199219 223.546875 110.101562 Z M 226.015625 115.707031 L 222.199219 118.53125 C 221.976562 118.695312 221.703125 118.632812 221.554688 118.433594 L 219.371094 115.476562 C 219.207031 115.257812 219.269531 114.980469 219.464844 114.835938 L 223.28125 112.011719 C 223.40625 111.921875 223.515625 111.917969 223.644531 111.933594 L 226.214844 112.320312 C 226.34375 112.339844 226.441406 112.421875 226.511719 112.519531 C 226.585938 112.617188 226.609375 112.753906 226.589844 112.882812 L 226.207031 115.453125 C 226.195312 115.539062 226.113281 115.636719 226.015625 115.707031 Z M 234.4375 117.105469 C 234.582031 117.300781 234.539062 117.601562 234.339844 117.746094 L 231.386719 119.933594 C 231.1875 120.078125 230.890625 120.03125 230.742188 119.835938 L 227.902344 115.992188 C 227.828125 115.894531 227.804688 115.757812 227.824219 115.628906 L 228.207031 113.058594 C 228.226562 112.929688 228.304688 112.832031 228.40625 112.757812 C 228.503906 112.6875 228.636719 112.664062 228.765625 112.683594 L 231.335938 113.066406 C 231.464844 113.085938 231.5625 113.167969 231.636719 113.265625 L 234.460938 117.085938 Z M 235.8125 107.890625 C 235.976562 108.113281 235.914062 108.386719 235.714844 108.535156 L 231.898438 111.355469 C 231.800781 111.429688 231.667969 111.453125 231.539062 111.433594 L 228.96875 111.046875 C 228.839844 111.027344 228.742188 110.949219 228.667969 110.847656 C 228.59375 110.75 228.570312 110.617188 228.589844 110.488281 L 228.976562 107.917969 C 228.996094 107.789062 229.074219 107.691406 229.171875 107.617188 L 232.988281 104.796875 C 233.1875 104.648438 233.484375 104.695312 233.632812 104.890625 L 235.835938 107.871094 Z M 262.210938 97.132812 C 258.273438 100.046875 252.703125 99.210938 249.789062 95.269531 C 246.871094 91.324219 247.703125 85.753906 251.644531 82.839844 C 255.582031 79.929688 261.152344 80.765625 264.066406 84.707031 C 266.984375 88.648438 266.152344 94.21875 262.210938 97.132812 Z M 262.210938 97.132812 "/></g></g></g></g><g clip-rule="nonzero" clip-path="url(#b565c97968)"><g clip-rule="nonzero" clip-path="url(#017127e3ac)"><g clip-rule="nonzero" clip-path="url(#48c568c153)"><g clip-rule="nonzero" clip-path="url(#664d69434f)"><path style=" stroke:none;fill-rule:nonzero;fill:#000000;fill-opacity:1;" d="M 317.535156 73.980469 C 297.976562 51.964844 275.847656 37.800781 264.296875 31.246094 C 263.507812 30.800781 262.734375 30.421875 261.910156 30.078125 C 256.652344 28.894531 249.601562 30.640625 245.09375 34.28125 C 236.804688 40.945312 235.074219 52.558594 241.105469 60.710938 C 244.386719 65.148438 249.402344 67.917969 254.910156 68.304688 C 254.996094 68.316406 255.105469 68.3125 255.191406 68.324219 C 270.167969 70.855469 276.328125 85.320312 277.667969 94.699219 L 280.363281 93.503906 C 282.871094 92.414062 285.734375 92.316406 288.230469 93.480469 C 288.414062 93.574219 288.640625 93.671875 288.824219 93.765625 C 292.144531 95.578125 295.828125 97.316406 299.660156 98.941406 C 315.058594 105.546875 328.65625 86.492188 317.535156 73.980469 Z M 248.597656 39.121094 C 250.542969 37.683594 253.285156 38.09375 254.726562 40.042969 C 256.167969 41.988281 255.757812 44.730469 253.8125 46.167969 C 251.867188 47.609375 249.125 47.195312 247.683594 45.25 C 246.226562 43.277344 246.65625 40.558594 248.597656 39.121094 Z M 252.007812 58.097656 C 250.0625 59.539062 247.320312 59.125 245.882812 57.179688 C 244.441406 55.234375 244.851562 52.492188 246.796875 51.050781 C 248.742188 49.613281 251.484375 50.023438 252.921875 51.972656 C 254.339844 53.9375 253.929688 56.679688 252.007812 58.097656 Z M 263.960938 59.894531 C 262.015625 61.332031 259.273438 60.921875 257.835938 58.972656 C 256.394531 57.027344 256.804688 54.285156 258.75 52.847656 C 260.695312 51.40625 263.4375 51.820312 264.878906 53.765625 C 266.292969 55.730469 265.882812 58.472656 263.960938 59.894531 Z M 265.746094 47.9375 C 263.800781 49.375 261.058594 48.964844 259.621094 47.019531 C 258.179688 45.070312 258.589844 42.328125 260.535156 40.890625 C 262.480469 39.453125 265.222656 39.863281 266.664062 41.8125 C 268.078125 43.777344 267.667969 46.519531 265.746094 47.9375 Z M 265.746094 47.9375 "/></g></g></g></g><g clip-rule="nonzero" clip-path="url(#eddc3c2f7c)"><g clip-rule="nonzero" clip-path="url(#34ed603047)"><g clip-rule="nonzero" clip-path="url(#aee1be404d)"><g clip-rule="nonzero" clip-path="url(#0194775fe4)"><path style=" stroke:none;fill-rule:nonzero;fill:#000000;fill-opacity:1;" d="M 171.308594 86.183594 C 172.753906 84.429688 174.386719 82.878906 176.1875 81.660156 C 186.296875 74.832031 199.640625 76.855469 206.601562 86.269531 C 209.480469 90.160156 210.972656 94.851562 210.875 99.613281 C 222.316406 87.683594 235.535156 77.90625 250.292969 70.460938 C 245.714844 69.160156 241.664062 66.359375 238.785156 62.46875 C 231.824219 53.054688 233.792969 39.703125 243.285156 32.039062 C 244.976562 30.671875 246.9375 29.5625 249.039062 28.695312 C 248.273438 28.84375 247.523438 29.015625 246.8125 29.238281 C 230.035156 34.210938 215.871094 43.695312 209.441406 48.492188 C 206.902344 50.367188 204.394531 52.222656 201.855469 54.101562 C 195.386719 58.847656 182.171875 69.613281 172.503906 84.195312 C 172.058594 84.828125 171.648438 85.511719 171.308594 86.183594 Z M 214.632812 72.25 L 213.679688 63.804688 C 213.589844 62.957031 214.425781 62.339844 215.207031 62.675781 L 223.003906 66.058594 C 223.785156 66.394531 223.894531 67.417969 223.207031 67.929688 L 216.359375 72.988281 C 215.695312 73.480469 214.75 73.078125 214.632812 72.25 Z M 214.632812 72.25 "/></g></g></g></g><g clip-rule="nonzero" clip-path="url(#4ee9b9518e)"><path style=" stroke:none;fill-rule:nonzero;fill:#ffd600;fill-opacity:1;" d="M 196.382812 307.289062 L 230.332031 307.289062 L 230.332031 316.292969 L 196.382812 316.292969 Z M 196.382812 307.289062 "/></g><path style=" stroke:none;fill-rule:nonzero;fill:#ffd600;fill-opacity:1;" d="M 220.527344 304.441406 L 206.1875 304.441406 L 210.164062 277.203125 C 210.332031 277.289062 210.519531 277.359375 210.671875 277.429688 L 210.804688 277.480469 C 210.988281 277.554688 211.175781 277.617188 211.359375 277.675781 L 211.460938 277.703125 C 211.621094 277.746094 211.773438 277.785156 211.929688 277.816406 L 212.105469 277.851562 C 212.273438 277.886719 212.460938 277.910156 212.613281 277.925781 L 212.816406 277.949219 C 212.957031 277.949219 213.101562 277.949219 213.242188 277.949219 L 213.472656 277.949219 C 213.613281 277.949219 213.757812 277.949219 213.898438 277.949219 L 214.101562 277.925781 C 214.269531 277.910156 214.457031 277.886719 214.613281 277.851562 L 214.785156 277.816406 C 214.941406 277.785156 215.101562 277.746094 215.253906 277.703125 L 215.355469 277.675781 C 215.546875 277.617188 215.710938 277.554688 215.914062 277.480469 L 216.042969 277.433594 C 216.214844 277.359375 216.398438 277.289062 216.554688 277.203125 Z M 220.527344 304.441406 "/><g clip-rule="nonzero" clip-path="url(#8099e2e06d)"><path style=" stroke:none;fill-rule:nonzero;fill:#ffd600;fill-opacity:1;" d="M 201.121094 265.207031 L 193.820312 262.234375 L 188.328125 239.609375 L 194.925781 240.257812 C 195.953125 249.054688 198.121094 258.152344 201.121094 265.207031 Z M 201.121094 265.207031 "/></g><g clip-rule="nonzero" clip-path="url(#b35fcc55ea)"><path style=" stroke:none;fill-rule:nonzero;fill:#ffd600;fill-opacity:1;" d="M 229.597656 230.792969 C 229.597656 231.644531 229.554688 232.503906 229.515625 233.363281 L 197.203125 233.363281 C 197.160156 232.503906 197.132812 231.644531 197.117188 230.792969 Z M 229.597656 230.792969 "/></g><g clip-rule="nonzero" clip-path="url(#0d8e0f936c)"><path style=" stroke:none;fill-rule:nonzero;fill:#ffd600;fill-opacity:1;" d="M 238.386719 239.609375 L 232.894531 262.234375 L 225.59375 265.207031 C 228.59375 258.152344 230.765625 249.054688 231.789062 240.269531 Z M 238.386719 239.609375 "/></g><path style=" stroke:none;fill-rule:nonzero;fill:#ffd600;fill-opacity:1;" d="M 229.335938 236.214844 C 228.09375 252.324219 222.742188 268.800781 216.742188 273.707031 C 215.589844 274.644531 214.453125 275.132812 213.359375 275.132812 C 213.199219 275.128906 213.039062 275.117188 212.878906 275.097656 C 211.777344 274.917969 210.808594 274.453125 209.972656 273.714844 C 203.972656 268.808594 198.625 252.339844 197.378906 236.222656 Z M 229.335938 236.214844 "/></g></svg>