<svg width="1064" height="156" viewBox="0 0 1064 156" fill="none" xmlns="http://www.w3.org/2000/svg">
    <g filter="url(#filter0_d_27_9076)">
    <mask id="path-1-outside-1_27_9076" maskUnits="userSpaceOnUse" x="30" y="5" width="277" height="53" fill="black">
    <rect fill="white" x="30" y="5" width="277" height="53"/>
    <path d="M32 56V7H81V14H46V28H74V35H46V56H32ZM95 56V49H88V14H95V7H130V14H137V49H130V56H95ZM102 49H123V14H102V49ZM144 56V7H186V14H193V35H179V42H186V49H193V56H172V49H165V42H158V56H144ZM158 35H172V28H179V14H158V35ZM214 56V49H207V42H200V21H207V14H214V7H249V14H221V21H214V42H221V49H235V35H228V28H249V56H214ZM256 56V7H305V14H270V28H298V35H270V49H305V56H256Z"/>
    </mask>
    <path d="M32 56V7H81V14H46V28H74V35H46V56H32ZM95 56V49H88V14H95V7H130V14H137V49H130V56H95ZM102 49H123V14H102V49ZM144 56V7H186V14H193V35H179V42H186V49H193V56H172V49H165V42H158V56H144ZM158 35H172V28H179V14H158V35ZM214 56V49H207V42H200V21H207V14H214V7H249V14H221V21H214V42H221V49H235V35H228V28H249V56H214ZM256 56V7H305V14H270V28H298V35H270V49H305V56H256Z" fill="white"/>
    <path d="M32 56H30V58H32V56ZM32 7V5H30V7H32ZM81 7H83V5H81V7ZM81 14V16H83V14H81ZM46 14V12H44V14H46ZM46 28H44V30H46V28ZM74 28H76V26H74V28ZM74 35V37H76V35H74ZM46 35V33H44V35H46ZM46 56V58H48V56H46ZM32 56H34V7H32H30V56H32ZM32 7V9H81V7V5H32V7ZM81 7H79V14H81H83V7H81ZM81 14V12H46V14V16H81V14ZM46 14H44V28H46H48V14H46ZM46 28V30H74V28V26H46V28ZM74 28H72V35H74H76V28H74ZM74 35V33H46V35V37H74V35ZM46 35H44V56H46H48V35H46ZM46 56V54H32V56V58H46V56ZM95 56H93V58H95V56ZM95 49H97V47H95V49ZM88 49H86V51H88V49ZM88 14V12H86V14H88ZM95 14V16H97V14H95ZM95 7V5H93V7H95ZM130 7H132V5H130V7ZM130 14H128V16H130V14ZM137 14H139V12H137V14ZM137 49V51H139V49H137ZM130 49V47H128V49H130ZM130 56V58H132V56H130ZM102 49H100V51H102V49ZM123 49V51H125V49H123ZM123 14H125V12H123V14ZM102 14V12H100V14H102ZM95 56H97V49H95H93V56H95ZM95 49V47H88V49V51H95V49ZM88 49H90V14H88H86V49H88ZM88 14V16H95V14V12H88V14ZM95 14H97V7H95H93V14H95ZM95 7V9H130V7V5H95V7ZM130 7H128V14H130H132V7H130ZM130 14V16H137V14V12H130V14ZM137 14H135V49H137H139V14H137ZM137 49V47H130V49V51H137V49ZM130 49H128V56H130H132V49H130ZM130 56V54H95V56V58H130V56ZM102 49V51H123V49V47H102V49ZM123 49H125V14H123H121V49H123ZM123 14V12H102V14V16H123V14ZM102 14H100V49H102H104V14H102ZM144 56H142V58H144V56ZM144 7V5H142V7H144ZM186 7H188V5H186V7ZM186 14H184V16H186V14ZM193 14H195V12H193V14ZM193 35V37H195V35H193ZM179 35V33H177V35H179ZM179 42H177V44H179V42ZM186 42H188V40H186V42ZM186 49H184V51H186V49ZM193 49H195V47H193V49ZM193 56V58H195V56H193ZM172 56H170V58H172V56ZM172 49H174V47H172V49ZM165 49H163V51H165V49ZM165 42H167V40H165V42ZM158 42V40H156V42H158ZM158 56V58H160V56H158ZM158 35H156V37H158V35ZM172 35V37H174V35H172ZM172 28V26H170V28H172ZM179 28V30H181V28H179ZM179 14H181V12H179V14ZM158 14V12H156V14H158ZM144 56H146V7H144H142V56H144ZM144 7V9H186V7V5H144V7ZM186 7H184V14H186H188V7H186ZM186 14V16H193V14V12H186V14ZM193 14H191V35H193H195V14H193ZM193 35V33H179V35V37H193V35ZM179 35H177V42H179H181V35H179ZM179 42V44H186V42V40H179V42ZM186 42H184V49H186H188V42H186ZM186 49V51H193V49V47H186V49ZM193 49H191V56H193H195V49H193ZM193 56V54H172V56V58H193V56ZM172 56H174V49H172H170V56H172ZM172 49V47H165V49V51H172V49ZM165 49H167V42H165H163V49H165ZM165 42V40H158V42V44H165V42ZM158 42H156V56H158H160V42H158ZM158 56V54H144V56V58H158V56ZM158 35V37H172V35V33H158V35ZM172 35H174V28H172H170V35H172ZM172 28V30H179V28V26H172V28ZM179 28H181V14H179H177V28H179ZM179 14V12H158V14V16H179V14ZM158 14H156V35H158H160V14H158ZM214 56H212V58H214V56ZM214 49H216V47H214V49ZM207 49H205V51H207V49ZM207 42H209V40H207V42ZM200 42H198V44H200V42ZM200 21V19H198V21H200ZM207 21V23H209V21H207ZM207 14V12H205V14H207ZM214 14V16H216V14H214ZM214 7V5H212V7H214ZM249 7H251V5H249V7ZM249 14V16H251V14H249ZM221 14V12H219V14H221ZM221 21V23H223V21H221ZM214 21V19H212V21H214ZM214 42H212V44H214V42ZM221 42H223V40H221V42ZM221 49H219V51H221V49ZM235 49V51H237V49H235ZM235 35H237V33H235V35ZM228 35H226V37H228V35ZM228 28V26H226V28H228ZM249 28H251V26H249V28ZM249 56V58H251V56H249ZM214 56H216V49H214H212V56H214ZM214 49V47H207V49V51H214V49ZM207 49H209V42H207H205V49H207ZM207 42V40H200V42V44H207V42ZM200 42H202V21H200H198V42H200ZM200 21V23H207V21V19H200V21ZM207 21H209V14H207H205V21H207ZM207 14V16H214V14V12H207V14ZM214 14H216V7H214H212V14H214ZM214 7V9H249V7V5H214V7ZM249 7H247V14H249H251V7H249ZM249 14V12H221V14V16H249V14ZM221 14H219V21H221H223V14H221ZM221 21V19H214V21V23H221V21ZM214 21H212V42H214H216V21H214ZM214 42V44H221V42V40H214V42ZM221 42H219V49H221H223V42H221ZM221 49V51H235V49V47H221V49ZM235 49H237V35H235H233V49H235ZM235 35V33H228V35V37H235V35ZM228 35H230V28H228H226V35H228ZM228 28V30H249V28V26H228V28ZM249 28H247V56H249H251V28H249ZM249 56V54H214V56V58H249V56ZM256 56H254V58H256V56ZM256 7V5H254V7H256ZM305 7H307V5H305V7ZM305 14V16H307V14H305ZM270 14V12H268V14H270ZM270 28H268V30H270V28ZM298 28H300V26H298V28ZM298 35V37H300V35H298ZM270 35V33H268V35H270ZM270 49H268V51H270V49ZM305 49H307V47H305V49ZM305 56V58H307V56H305ZM256 56H258V7H256H254V56H256ZM256 7V9H305V7V5H256V7ZM305 7H303V14H305H307V7H305ZM305 14V12H270V14V16H305V14ZM270 14H268V28H270H272V14H270ZM270 28V30H298V28V26H270V28ZM298 28H296V35H298H300V28H298ZM298 35V33H270V35V37H298V35ZM270 35H268V49H270H272V35H270ZM270 49V51H305V49V47H270V49ZM305 49H303V56H305H307V49H305ZM305 56V54H256V56V58H305V56Z" fill="black" mask="url(#path-1-outside-1_27_9076)"/>
    </g>
    <g filter="url(#filter1_d_27_9076)">
    <mask id="path-3-outside-2_27_9076" maskUnits="userSpaceOnUse" x="341" y="5" width="214" height="53" fill="black">
    <rect fill="white" x="341" y="5" width="214" height="53"/>
    <path d="M357 56V35H350V28H343V7H357V28H371V7H385V28H378V35H371V56H357ZM399 56V49H392V14H399V7H434V14H441V49H434V56H399ZM406 49H427V14H406V49ZM455 56V49H448V7H462V49H483V7H497V49H490V56H455ZM504 56V7H546V14H553V35H539V42H546V49H553V56H532V49H525V42H518V56H504ZM518 35H532V28H539V14H518V35Z"/>
    </mask>
    <path d="M357 56V35H350V28H343V7H357V28H371V7H385V28H378V35H371V56H357ZM399 56V49H392V14H399V7H434V14H441V49H434V56H399ZM406 49H427V14H406V49ZM455 56V49H448V7H462V49H483V7H497V49H490V56H455ZM504 56V7H546V14H553V35H539V42H546V49H553V56H532V49H525V42H518V56H504ZM518 35H532V28H539V14H518V35Z" fill="white"/>
    <path d="M357 56H355V58H357V56ZM357 35H359V33H357V35ZM350 35H348V37H350V35ZM350 28H352V26H350V28ZM343 28H341V30H343V28ZM343 7V5H341V7H343ZM357 7H359V5H357V7ZM357 28H355V30H357V28ZM371 28V30H373V28H371ZM371 7V5H369V7H371ZM385 7H387V5H385V7ZM385 28V30H387V28H385ZM378 28V26H376V28H378ZM378 35V37H380V35H378ZM371 35V33H369V35H371ZM371 56V58H373V56H371ZM357 56H359V35H357H355V56H357ZM357 35V33H350V35V37H357V35ZM350 35H352V28H350H348V35H350ZM350 28V26H343V28V30H350V28ZM343 28H345V7H343H341V28H343ZM343 7V9H357V7V5H343V7ZM357 7H355V28H357H359V7H357ZM357 28V30H371V28V26H357V28ZM371 28H373V7H371H369V28H371ZM371 7V9H385V7V5H371V7ZM385 7H383V28H385H387V7H385ZM385 28V26H378V28V30H385V28ZM378 28H376V35H378H380V28H378ZM378 35V33H371V35V37H378V35ZM371 35H369V56H371H373V35H371ZM371 56V54H357V56V58H371V56ZM399 56H397V58H399V56ZM399 49H401V47H399V49ZM392 49H390V51H392V49ZM392 14V12H390V14H392ZM399 14V16H401V14H399ZM399 7V5H397V7H399ZM434 7H436V5H434V7ZM434 14H432V16H434V14ZM441 14H443V12H441V14ZM441 49V51H443V49H441ZM434 49V47H432V49H434ZM434 56V58H436V56H434ZM406 49H404V51H406V49ZM427 49V51H429V49H427ZM427 14H429V12H427V14ZM406 14V12H404V14H406ZM399 56H401V49H399H397V56H399ZM399 49V47H392V49V51H399V49ZM392 49H394V14H392H390V49H392ZM392 14V16H399V14V12H392V14ZM399 14H401V7H399H397V14H399ZM399 7V9H434V7V5H399V7ZM434 7H432V14H434H436V7H434ZM434 14V16H441V14V12H434V14ZM441 14H439V49H441H443V14H441ZM441 49V47H434V49V51H441V49ZM434 49H432V56H434H436V49H434ZM434 56V54H399V56V58H434V56ZM406 49V51H427V49V47H406V49ZM427 49H429V14H427H425V49H427ZM427 14V12H406V14V16H427V14ZM406 14H404V49H406H408V14H406ZM455 56H453V58H455V56ZM455 49H457V47H455V49ZM448 49H446V51H448V49ZM448 7V5H446V7H448ZM462 7H464V5H462V7ZM462 49H460V51H462V49ZM483 49V51H485V49H483ZM483 7V5H481V7H483ZM497 7H499V5H497V7ZM497 49V51H499V49H497ZM490 49V47H488V49H490ZM490 56V58H492V56H490ZM455 56H457V49H455H453V56H455ZM455 49V47H448V49V51H455V49ZM448 49H450V7H448H446V49H448ZM448 7V9H462V7V5H448V7ZM462 7H460V49H462H464V7H462ZM462 49V51H483V49V47H462V49ZM483 49H485V7H483H481V49H483ZM483 7V9H497V7V5H483V7ZM497 7H495V49H497H499V7H497ZM497 49V47H490V49V51H497V49ZM490 49H488V56H490H492V49H490ZM490 56V54H455V56V58H490V56ZM504 56H502V58H504V56ZM504 7V5H502V7H504ZM546 7H548V5H546V7ZM546 14H544V16H546V14ZM553 14H555V12H553V14ZM553 35V37H555V35H553ZM539 35V33H537V35H539ZM539 42H537V44H539V42ZM546 42H548V40H546V42ZM546 49H544V51H546V49ZM553 49H555V47H553V49ZM553 56V58H555V56H553ZM532 56H530V58H532V56ZM532 49H534V47H532V49ZM525 49H523V51H525V49ZM525 42H527V40H525V42ZM518 42V40H516V42H518ZM518 56V58H520V56H518ZM518 35H516V37H518V35ZM532 35V37H534V35H532ZM532 28V26H530V28H532ZM539 28V30H541V28H539ZM539 14H541V12H539V14ZM518 14V12H516V14H518ZM504 56H506V7H504H502V56H504ZM504 7V9H546V7V5H504V7ZM546 7H544V14H546H548V7H546ZM546 14V16H553V14V12H546V14ZM553 14H551V35H553H555V14H553ZM553 35V33H539V35V37H553V35ZM539 35H537V42H539H541V35H539ZM539 42V44H546V42V40H539V42ZM546 42H544V49H546H548V42H546ZM546 49V51H553V49V47H546V49ZM553 49H551V56H553H555V49H553ZM553 56V54H532V56V58H553V56ZM532 56H534V49H532H530V56H532ZM532 49V47H525V49V51H532V49ZM525 49H527V42H525H523V49H525ZM525 42V40H518V42V44H525V42ZM518 42H516V56H518H520V42H518ZM518 56V54H504V56V58H518V56ZM518 35V37H532V35V33H518V35ZM532 35H534V28H532H530V35H532ZM532 28V30H539V28V26H532V28ZM539 28H541V14H539H537V28H539ZM539 14V12H518V14V16H539V14ZM518 14H516V35H518H520V14H518Z" fill="black" mask="url(#path-3-outside-2_27_9076)"/>
    </g>
    <g filter="url(#filter2_d_27_9076)">
    <mask id="path-5-outside-3_27_9076" maskUnits="userSpaceOnUse" x="582" y="5" width="445" height="53" fill="black">
    <rect fill="white" x="582" y="5" width="445" height="53"/>
    <path d="M591 56V49H584V7H598V49H619V7H633V49H626V56H591ZM647 56V7H661V49H689V56H647ZM717 56V14H703V7H745V14H731V56H717ZM759 56V49H773V14H759V7H801V14H787V49H801V56H759ZM808 56V7H822V14H829V21H836V14H843V7H857V56H843V28H836V42H829V28H822V56H808ZM864 56V21H871V14H878V7H899V14H906V21H913V56H899V42H878V56H864ZM878 35H899V21H892V14H885V21H878V35ZM941 56V14H927V7H969V14H955V56H941ZM976 56V7H1025V14H990V28H1018V35H990V49H1025V56H976Z"/>
    </mask>
    <path d="M591 56V49H584V7H598V49H619V7H633V49H626V56H591ZM647 56V7H661V49H689V56H647ZM717 56V14H703V7H745V14H731V56H717ZM759 56V49H773V14H759V7H801V14H787V49H801V56H759ZM808 56V7H822V14H829V21H836V14H843V7H857V56H843V28H836V42H829V28H822V56H808ZM864 56V21H871V14H878V7H899V14H906V21H913V56H899V42H878V56H864ZM878 35H899V21H892V14H885V21H878V35ZM941 56V14H927V7H969V14H955V56H941ZM976 56V7H1025V14H990V28H1018V35H990V49H1025V56H976Z" fill="white"/>
    <path d="M591 56H589V58H591V56ZM591 49H593V47H591V49ZM584 49H582V51H584V49ZM584 7V5H582V7H584ZM598 7H600V5H598V7ZM598 49H596V51H598V49ZM619 49V51H621V49H619ZM619 7V5H617V7H619ZM633 7H635V5H633V7ZM633 49V51H635V49H633ZM626 49V47H624V49H626ZM626 56V58H628V56H626ZM591 56H593V49H591H589V56H591ZM591 49V47H584V49V51H591V49ZM584 49H586V7H584H582V49H584ZM584 7V9H598V7V5H584V7ZM598 7H596V49H598H600V7H598ZM598 49V51H619V49V47H598V49ZM619 49H621V7H619H617V49H619ZM619 7V9H633V7V5H619V7ZM633 7H631V49H633H635V7H633ZM633 49V47H626V49V51H633V49ZM626 49H624V56H626H628V49H626ZM626 56V54H591V56V58H626V56ZM647 56H645V58H647V56ZM647 7V5H645V7H647ZM661 7H663V5H661V7ZM661 49H659V51H661V49ZM689 49H691V47H689V49ZM689 56V58H691V56H689ZM647 56H649V7H647H645V56H647ZM647 7V9H661V7V5H647V7ZM661 7H659V49H661H663V7H661ZM661 49V51H689V49V47H661V49ZM689 49H687V56H689H691V49H689ZM689 56V54H647V56V58H689V56ZM717 56H715V58H717V56ZM717 14H719V12H717V14ZM703 14H701V16H703V14ZM703 7V5H701V7H703ZM745 7H747V5H745V7ZM745 14V16H747V14H745ZM731 14V12H729V14H731ZM731 56V58H733V56H731ZM717 56H719V14H717H715V56H717ZM717 14V12H703V14V16H717V14ZM703 14H705V7H703H701V14H703ZM703 7V9H745V7V5H703V7ZM745 7H743V14H745H747V7H745ZM745 14V12H731V14V16H745V14ZM731 14H729V56H731H733V14H731ZM731 56V54H717V56V58H731V56ZM759 56H757V58H759V56ZM759 49V47H757V49H759ZM773 49V51H775V49H773ZM773 14H775V12H773V14ZM759 14H757V16H759V14ZM759 7V5H757V7H759ZM801 7H803V5H801V7ZM801 14V16H803V14H801ZM787 14V12H785V14H787ZM787 49H785V51H787V49ZM801 49H803V47H801V49ZM801 56V58H803V56H801ZM759 56H761V49H759H757V56H759ZM759 49V51H773V49V47H759V49ZM773 49H775V14H773H771V49H773ZM773 14V12H759V14V16H773V14ZM759 14H761V7H759H757V14H759ZM759 7V9H801V7V5H759V7ZM801 7H799V14H801H803V7H801ZM801 14V12H787V14V16H801V14ZM787 14H785V49H787H789V14H787ZM787 49V51H801V49V47H787V49ZM801 49H799V56H801H803V49H801ZM801 56V54H759V56V58H801V56ZM808 56H806V58H808V56ZM808 7V5H806V7H808ZM822 7H824V5H822V7ZM822 14H820V16H822V14ZM829 14H831V12H829V14ZM829 21H827V23H829V21ZM836 21V23H838V21H836ZM836 14V12H834V14H836ZM843 14V16H845V14H843ZM843 7V5H841V7H843ZM857 7H859V5H857V7ZM857 56V58H859V56H857ZM843 56H841V58H843V56ZM843 28H845V26H843V28ZM836 28V26H834V28H836ZM836 42V44H838V42H836ZM829 42H827V44H829V42ZM829 28H831V26H829V28ZM822 28V26H820V28H822ZM822 56V58H824V56H822ZM808 56H810V7H808H806V56H808ZM808 7V9H822V7V5H808V7ZM822 7H820V14H822H824V7H822ZM822 14V16H829V14V12H822V14ZM829 14H827V21H829H831V14H829ZM829 21V23H836V21V19H829V21ZM836 21H838V14H836H834V21H836ZM836 14V16H843V14V12H836V14ZM843 14H845V7H843H841V14H843ZM843 7V9H857V7V5H843V7ZM857 7H855V56H857H859V7H857ZM857 56V54H843V56V58H857V56ZM843 56H845V28H843H841V56H843ZM843 28V26H836V28V30H843V28ZM836 28H834V42H836H838V28H836ZM836 42V40H829V42V44H836V42ZM829 42H831V28H829H827V42H829ZM829 28V26H822V28V30H829V28ZM822 28H820V56H822H824V28H822ZM822 56V54H808V56V58H822V56ZM864 56H862V58H864V56ZM864 21V19H862V21H864ZM871 21V23H873V21H871ZM871 14V12H869V14H871ZM878 14V16H880V14H878ZM878 7V5H876V7H878ZM899 7H901V5H899V7ZM899 14H897V16H899V14ZM906 14H908V12H906V14ZM906 21H904V23H906V21ZM913 21H915V19H913V21ZM913 56V58H915V56H913ZM899 56H897V58H899V56ZM899 42H901V40H899V42ZM878 42V40H876V42H878ZM878 56V58H880V56H878ZM878 35H876V37H878V35ZM899 35V37H901V35H899ZM899 21H901V19H899V21ZM892 21H890V23H892V21ZM892 14H894V12H892V14ZM885 14V12H883V14H885ZM885 21V23H887V21H885ZM878 21V19H876V21H878ZM864 56H866V21H864H862V56H864ZM864 21V23H871V21V19H864V21ZM871 21H873V14H871H869V21H871ZM871 14V16H878V14V12H871V14ZM878 14H880V7H878H876V14H878ZM878 7V9H899V7V5H878V7ZM899 7H897V14H899H901V7H899ZM899 14V16H906V14V12H899V14ZM906 14H904V21H906H908V14H906ZM906 21V23H913V21V19H906V21ZM913 21H911V56H913H915V21H913ZM913 56V54H899V56V58H913V56ZM899 56H901V42H899H897V56H899ZM899 42V40H878V42V44H899V42ZM878 42H876V56H878H880V42H878ZM878 56V54H864V56V58H878V56ZM878 35V37H899V35V33H878V35ZM899 35H901V21H899H897V35H899ZM899 21V19H892V21V23H899V21ZM892 21H894V14H892H890V21H892ZM892 14V12H885V14V16H892V14ZM885 14H883V21H885H887V14H885ZM885 21V19H878V21V23H885V21ZM878 21H876V35H878H880V21H878ZM941 56H939V58H941V56ZM941 14H943V12H941V14ZM927 14H925V16H927V14ZM927 7V5H925V7H927ZM969 7H971V5H969V7ZM969 14V16H971V14H969ZM955 14V12H953V14H955ZM955 56V58H957V56H955ZM941 56H943V14H941H939V56H941ZM941 14V12H927V14V16H941V14ZM927 14H929V7H927H925V14H927ZM927 7V9H969V7V5H927V7ZM969 7H967V14H969H971V7H969ZM969 14V12H955V14V16H969V14ZM955 14H953V56H955H957V14H955ZM955 56V54H941V56V58H955V56ZM976 56H974V58H976V56ZM976 7V5H974V7H976ZM1025 7H1027V5H1025V7ZM1025 14V16H1027V14H1025ZM990 14V12H988V14H990ZM990 28H988V30H990V28ZM1018 28H1020V26H1018V28ZM1018 35V37H1020V35H1018ZM990 35V33H988V35H990ZM990 49H988V51H990V49ZM1025 49H1027V47H1025V49ZM1025 56V58H1027V56H1025ZM976 56H978V7H976H974V56H976ZM976 7V9H1025V7V5H976V7ZM1025 7H1023V14H1025H1027V7H1025ZM1025 14V12H990V14V16H1025V14ZM990 14H988V28H990H992V14H990ZM990 28V30H1018V28V26H990V28ZM1018 28H1016V35H1018H1020V28H1018ZM1018 35V33H990V35V37H1018V35ZM990 35H988V49H990H992V35H990ZM990 49V51H1025V49V47H990V49ZM1025 49H1023V56H1025H1027V49H1025ZM1025 56V54H976V56V58H1025V56Z" fill="black" mask="url(#path-5-outside-3_27_9076)"/>
    </g>
    <g filter="url(#filter3_d_27_9076)">
    <mask id="path-7-outside-4_27_9076" maskUnits="userSpaceOnUse" x="182" y="91" width="333" height="53" fill="black">
    <rect fill="white" x="182" y="91" width="333" height="53"/>
    <path d="M198 142V135H191V128H184V107H191V100H198V93H233V100H205V107H198V128H205V135H219V121H212V114H233V142H198ZM240 142V107H247V100H254V93H275V100H282V107H289V142H275V128H254V142H240ZM254 121H275V107H268V100H261V107H254V121ZM296 142V93H310V100H317V107H324V100H331V93H345V142H331V114H324V128H317V114H310V142H296ZM359 142V135H373V100H359V93H401V100H387V135H401V142H359ZM408 142V93H422V100H429V107H436V114H443V93H457V142H443V128H436V121H429V114H422V142H408ZM478 142V135H471V128H464V107H471V100H478V93H513V100H485V107H478V128H485V135H499V121H492V114H513V142H478Z"/>
    </mask>
    <path d="M198 142V135H191V128H184V107H191V100H198V93H233V100H205V107H198V128H205V135H219V121H212V114H233V142H198ZM240 142V107H247V100H254V93H275V100H282V107H289V142H275V128H254V142H240ZM254 121H275V107H268V100H261V107H254V121ZM296 142V93H310V100H317V107H324V100H331V93H345V142H331V114H324V128H317V114H310V142H296ZM359 142V135H373V100H359V93H401V100H387V135H401V142H359ZM408 142V93H422V100H429V107H436V114H443V93H457V142H443V128H436V121H429V114H422V142H408ZM478 142V135H471V128H464V107H471V100H478V93H513V100H485V107H478V128H485V135H499V121H492V114H513V142H478Z" fill="#F7CC1F"/>
    <path d="M198 142H196V144H198V142ZM198 135H200V133H198V135ZM191 135H189V137H191V135ZM191 128H193V126H191V128ZM184 128H182V130H184V128ZM184 107V105H182V107H184ZM191 107V109H193V107H191ZM191 100V98H189V100H191ZM198 100V102H200V100H198ZM198 93V91H196V93H198ZM233 93H235V91H233V93ZM233 100V102H235V100H233ZM205 100V98H203V100H205ZM205 107V109H207V107H205ZM198 107V105H196V107H198ZM198 128H196V130H198V128ZM205 128H207V126H205V128ZM205 135H203V137H205V135ZM219 135V137H221V135H219ZM219 121H221V119H219V121ZM212 121H210V123H212V121ZM212 114V112H210V114H212ZM233 114H235V112H233V114ZM233 142V144H235V142H233ZM198 142H200V135H198H196V142H198ZM198 135V133H191V135V137H198V135ZM191 135H193V128H191H189V135H191ZM191 128V126H184V128V130H191V128ZM184 128H186V107H184H182V128H184ZM184 107V109H191V107V105H184V107ZM191 107H193V100H191H189V107H191ZM191 100V102H198V100V98H191V100ZM198 100H200V93H198H196V100H198ZM198 93V95H233V93V91H198V93ZM233 93H231V100H233H235V93H233ZM233 100V98H205V100V102H233V100ZM205 100H203V107H205H207V100H205ZM205 107V105H198V107V109H205V107ZM198 107H196V128H198H200V107H198ZM198 128V130H205V128V126H198V128ZM205 128H203V135H205H207V128H205ZM205 135V137H219V135V133H205V135ZM219 135H221V121H219H217V135H219ZM219 121V119H212V121V123H219V121ZM212 121H214V114H212H210V121H212ZM212 114V116H233V114V112H212V114ZM233 114H231V142H233H235V114H233ZM233 142V140H198V142V144H233V142ZM240 142H238V144H240V142ZM240 107V105H238V107H240ZM247 107V109H249V107H247ZM247 100V98H245V100H247ZM254 100V102H256V100H254ZM254 93V91H252V93H254ZM275 93H277V91H275V93ZM275 100H273V102H275V100ZM282 100H284V98H282V100ZM282 107H280V109H282V107ZM289 107H291V105H289V107ZM289 142V144H291V142H289ZM275 142H273V144H275V142ZM275 128H277V126H275V128ZM254 128V126H252V128H254ZM254 142V144H256V142H254ZM254 121H252V123H254V121ZM275 121V123H277V121H275ZM275 107H277V105H275V107ZM268 107H266V109H268V107ZM268 100H270V98H268V100ZM261 100V98H259V100H261ZM261 107V109H263V107H261ZM254 107V105H252V107H254ZM240 142H242V107H240H238V142H240ZM240 107V109H247V107V105H240V107ZM247 107H249V100H247H245V107H247ZM247 100V102H254V100V98H247V100ZM254 100H256V93H254H252V100H254ZM254 93V95H275V93V91H254V93ZM275 93H273V100H275H277V93H275ZM275 100V102H282V100V98H275V100ZM282 100H280V107H282H284V100H282ZM282 107V109H289V107V105H282V107ZM289 107H287V142H289H291V107H289ZM289 142V140H275V142V144H289V142ZM275 142H277V128H275H273V142H275ZM275 128V126H254V128V130H275V128ZM254 128H252V142H254H256V128H254ZM254 142V140H240V142V144H254V142ZM254 121V123H275V121V119H254V121ZM275 121H277V107H275H273V121H275ZM275 107V105H268V107V109H275V107ZM268 107H270V100H268H266V107H268ZM268 100V98H261V100V102H268V100ZM261 100H259V107H261H263V100H261ZM261 107V105H254V107V109H261V107ZM254 107H252V121H254H256V107H254ZM296 142H294V144H296V142ZM296 93V91H294V93H296ZM310 93H312V91H310V93ZM310 100H308V102H310V100ZM317 100H319V98H317V100ZM317 107H315V109H317V107ZM324 107V109H326V107H324ZM324 100V98H322V100H324ZM331 100V102H333V100H331ZM331 93V91H329V93H331ZM345 93H347V91H345V93ZM345 142V144H347V142H345ZM331 142H329V144H331V142ZM331 114H333V112H331V114ZM324 114V112H322V114H324ZM324 128V130H326V128H324ZM317 128H315V130H317V128ZM317 114H319V112H317V114ZM310 114V112H308V114H310ZM310 142V144H312V142H310ZM296 142H298V93H296H294V142H296ZM296 93V95H310V93V91H296V93ZM310 93H308V100H310H312V93H310ZM310 100V102H317V100V98H310V100ZM317 100H315V107H317H319V100H317ZM317 107V109H324V107V105H317V107ZM324 107H326V100H324H322V107H324ZM324 100V102H331V100V98H324V100ZM331 100H333V93H331H329V100H331ZM331 93V95H345V93V91H331V93ZM345 93H343V142H345H347V93H345ZM345 142V140H331V142V144H345V142ZM331 142H333V114H331H329V142H331ZM331 114V112H324V114V116H331V114ZM324 114H322V128H324H326V114H324ZM324 128V126H317V128V130H324V128ZM317 128H319V114H317H315V128H317ZM317 114V112H310V114V116H317V114ZM310 114H308V142H310H312V114H310ZM310 142V140H296V142V144H310V142ZM359 142H357V144H359V142ZM359 135V133H357V135H359ZM373 135V137H375V135H373ZM373 100H375V98H373V100ZM359 100H357V102H359V100ZM359 93V91H357V93H359ZM401 93H403V91H401V93ZM401 100V102H403V100H401ZM387 100V98H385V100H387ZM387 135H385V137H387V135ZM401 135H403V133H401V135ZM401 142V144H403V142H401ZM359 142H361V135H359H357V142H359ZM359 135V137H373V135V133H359V135ZM373 135H375V100H373H371V135H373ZM373 100V98H359V100V102H373V100ZM359 100H361V93H359H357V100H359ZM359 93V95H401V93V91H359V93ZM401 93H399V100H401H403V93H401ZM401 100V98H387V100V102H401V100ZM387 100H385V135H387H389V100H387ZM387 135V137H401V135V133H387V135ZM401 135H399V142H401H403V135H401ZM401 142V140H359V142V144H401V142ZM408 142H406V144H408V142ZM408 93V91H406V93H408ZM422 93H424V91H422V93ZM422 100H420V102H422V100ZM429 100H431V98H429V100ZM429 107H427V109H429V107ZM436 107H438V105H436V107ZM436 114H434V116H436V114ZM443 114V116H445V114H443ZM443 93V91H441V93H443ZM457 93H459V91H457V93ZM457 142V144H459V142H457ZM443 142H441V144H443V142ZM443 128H445V126H443V128ZM436 128H434V130H436V128ZM436 121H438V119H436V121ZM429 121H427V123H429V121ZM429 114H431V112H429V114ZM422 114V112H420V114H422ZM422 142V144H424V142H422ZM408 142H410V93H408H406V142H408ZM408 93V95H422V93V91H408V93ZM422 93H420V100H422H424V93H422ZM422 100V102H429V100V98H422V100ZM429 100H427V107H429H431V100H429ZM429 107V109H436V107V105H429V107ZM436 107H434V114H436H438V107H436ZM436 114V116H443V114V112H436V114ZM443 114H445V93H443H441V114H443ZM443 93V95H457V93V91H443V93ZM457 93H455V142H457H459V93H457ZM457 142V140H443V142V144H457V142ZM443 142H445V128H443H441V142H443ZM443 128V126H436V128V130H443V128ZM436 128H438V121H436H434V128H436ZM436 121V119H429V121V123H436V121ZM429 121H431V114H429H427V121H429ZM429 114V112H422V114V116H429V114ZM422 114H420V142H422H424V114H422ZM422 142V140H408V142V144H422V142ZM478 142H476V144H478V142ZM478 135H480V133H478V135ZM471 135H469V137H471V135ZM471 128H473V126H471V128ZM464 128H462V130H464V128ZM464 107V105H462V107H464ZM471 107V109H473V107H471ZM471 100V98H469V100H471ZM478 100V102H480V100H478ZM478 93V91H476V93H478ZM513 93H515V91H513V93ZM513 100V102H515V100H513ZM485 100V98H483V100H485ZM485 107V109H487V107H485ZM478 107V105H476V107H478ZM478 128H476V130H478V128ZM485 128H487V126H485V128ZM485 135H483V137H485V135ZM499 135V137H501V135H499ZM499 121H501V119H499V121ZM492 121H490V123H492V121ZM492 114V112H490V114H492ZM513 114H515V112H513V114ZM513 142V144H515V142H513ZM478 142H480V135H478H476V142H478ZM478 135V133H471V135V137H478V135ZM471 135H473V128H471H469V135H471ZM471 128V126H464V128V130H471V128ZM464 128H466V107H464H462V128H464ZM464 107V109H471V107V105H464V107ZM471 107H473V100H471H469V107H471ZM471 100V102H478V100V98H471V100ZM478 100H480V93H478H476V100H478ZM478 93V95H513V93V91H478V93ZM513 93H511V100H513H515V93H513ZM513 100V98H485V100V102H513V100ZM485 100H483V107H485H487V100H485ZM485 107V105H478V107V109H485V107ZM478 107H476V128H478H480V107H478ZM478 128V130H485V128V126H478V128ZM485 128H483V135H485H487V128H485ZM485 135V137H499V135V133H485V135ZM499 135H501V121H499H497V135H499ZM499 121V119H492V121V123H499V121ZM492 121H494V114H492H490V121H492ZM492 114V116H513V114V112H492V114ZM513 114H511V142H513H515V114H513ZM513 142V140H478V142V144H513V142Z" fill="black" mask="url(#path-7-outside-4_27_9076)"/>
    </g>
    <g filter="url(#filter4_d_27_9076)">
    <mask id="path-9-outside-5_27_9076" maskUnits="userSpaceOnUse" x="549" y="91" width="326" height="53" fill="black">
    <rect fill="white" x="549" y="91" width="326" height="53"/>
    <path d="M551 142V93H565V135H593V142H551ZM600 142V93H649V100H614V114H642V121H614V135H649V142H600ZM670 142V135H663V128H656V107H663V100H670V93H705V100H677V107H670V128H677V135H691V121H684V114H705V142H670ZM712 142V107H719V100H726V93H747V100H754V107H761V142H747V128H726V142H712ZM726 121H747V107H740V100H733V107H726V121ZM782 142V135H775V128H768V107H775V100H782V93H810V100H817V107H803V100H789V107H782V128H789V135H803V128H817V135H810V142H782ZM845 142V121H838V114H831V93H845V114H859V93H873V114H866V121H859V142H845Z"/>
    </mask>
    <path d="M551 142V93H565V135H593V142H551ZM600 142V93H649V100H614V114H642V121H614V135H649V142H600ZM670 142V135H663V128H656V107H663V100H670V93H705V100H677V107H670V128H677V135H691V121H684V114H705V142H670ZM712 142V107H719V100H726V93H747V100H754V107H761V142H747V128H726V142H712ZM726 121H747V107H740V100H733V107H726V121ZM782 142V135H775V128H768V107H775V100H782V93H810V100H817V107H803V100H789V107H782V128H789V135H803V128H817V135H810V142H782ZM845 142V121H838V114H831V93H845V114H859V93H873V114H866V121H859V142H845Z" fill="#F7CC1F"/>
    <path d="M551 142H549V144H551V142ZM551 93V91H549V93H551ZM565 93H567V91H565V93ZM565 135H563V137H565V135ZM593 135H595V133H593V135ZM593 142V144H595V142H593ZM551 142H553V93H551H549V142H551ZM551 93V95H565V93V91H551V93ZM565 93H563V135H565H567V93H565ZM565 135V137H593V135V133H565V135ZM593 135H591V142H593H595V135H593ZM593 142V140H551V142V144H593V142ZM600 142H598V144H600V142ZM600 93V91H598V93H600ZM649 93H651V91H649V93ZM649 100V102H651V100H649ZM614 100V98H612V100H614ZM614 114H612V116H614V114ZM642 114H644V112H642V114ZM642 121V123H644V121H642ZM614 121V119H612V121H614ZM614 135H612V137H614V135ZM649 135H651V133H649V135ZM649 142V144H651V142H649ZM600 142H602V93H600H598V142H600ZM600 93V95H649V93V91H600V93ZM649 93H647V100H649H651V93H649ZM649 100V98H614V100V102H649V100ZM614 100H612V114H614H616V100H614ZM614 114V116H642V114V112H614V114ZM642 114H640V121H642H644V114H642ZM642 121V119H614V121V123H642V121ZM614 121H612V135H614H616V121H614ZM614 135V137H649V135V133H614V135ZM649 135H647V142H649H651V135H649ZM649 142V140H600V142V144H649V142ZM670 142H668V144H670V142ZM670 135H672V133H670V135ZM663 135H661V137H663V135ZM663 128H665V126H663V128ZM656 128H654V130H656V128ZM656 107V105H654V107H656ZM663 107V109H665V107H663ZM663 100V98H661V100H663ZM670 100V102H672V100H670ZM670 93V91H668V93H670ZM705 93H707V91H705V93ZM705 100V102H707V100H705ZM677 100V98H675V100H677ZM677 107V109H679V107H677ZM670 107V105H668V107H670ZM670 128H668V130H670V128ZM677 128H679V126H677V128ZM677 135H675V137H677V135ZM691 135V137H693V135H691ZM691 121H693V119H691V121ZM684 121H682V123H684V121ZM684 114V112H682V114H684ZM705 114H707V112H705V114ZM705 142V144H707V142H705ZM670 142H672V135H670H668V142H670ZM670 135V133H663V135V137H670V135ZM663 135H665V128H663H661V135H663ZM663 128V126H656V128V130H663V128ZM656 128H658V107H656H654V128H656ZM656 107V109H663V107V105H656V107ZM663 107H665V100H663H661V107H663ZM663 100V102H670V100V98H663V100ZM670 100H672V93H670H668V100H670ZM670 93V95H705V93V91H670V93ZM705 93H703V100H705H707V93H705ZM705 100V98H677V100V102H705V100ZM677 100H675V107H677H679V100H677ZM677 107V105H670V107V109H677V107ZM670 107H668V128H670H672V107H670ZM670 128V130H677V128V126H670V128ZM677 128H675V135H677H679V128H677ZM677 135V137H691V135V133H677V135ZM691 135H693V121H691H689V135H691ZM691 121V119H684V121V123H691V121ZM684 121H686V114H684H682V121H684ZM684 114V116H705V114V112H684V114ZM705 114H703V142H705H707V114H705ZM705 142V140H670V142V144H705V142ZM712 142H710V144H712V142ZM712 107V105H710V107H712ZM719 107V109H721V107H719ZM719 100V98H717V100H719ZM726 100V102H728V100H726ZM726 93V91H724V93H726ZM747 93H749V91H747V93ZM747 100H745V102H747V100ZM754 100H756V98H754V100ZM754 107H752V109H754V107ZM761 107H763V105H761V107ZM761 142V144H763V142H761ZM747 142H745V144H747V142ZM747 128H749V126H747V128ZM726 128V126H724V128H726ZM726 142V144H728V142H726ZM726 121H724V123H726V121ZM747 121V123H749V121H747ZM747 107H749V105H747V107ZM740 107H738V109H740V107ZM740 100H742V98H740V100ZM733 100V98H731V100H733ZM733 107V109H735V107H733ZM726 107V105H724V107H726ZM712 142H714V107H712H710V142H712ZM712 107V109H719V107V105H712V107ZM719 107H721V100H719H717V107H719ZM719 100V102H726V100V98H719V100ZM726 100H728V93H726H724V100H726ZM726 93V95H747V93V91H726V93ZM747 93H745V100H747H749V93H747ZM747 100V102H754V100V98H747V100ZM754 100H752V107H754H756V100H754ZM754 107V109H761V107V105H754V107ZM761 107H759V142H761H763V107H761ZM761 142V140H747V142V144H761V142ZM747 142H749V128H747H745V142H747ZM747 128V126H726V128V130H747V128ZM726 128H724V142H726H728V128H726ZM726 142V140H712V142V144H726V142ZM726 121V123H747V121V119H726V121ZM747 121H749V107H747H745V121H747ZM747 107V105H740V107V109H747V107ZM740 107H742V100H740H738V107H740ZM740 100V98H733V100V102H740V100ZM733 100H731V107H733H735V100H733ZM733 107V105H726V107V109H733V107ZM726 107H724V121H726H728V107H726ZM782 142H780V144H782V142ZM782 135H784V133H782V135ZM775 135H773V137H775V135ZM775 128H777V126H775V128ZM768 128H766V130H768V128ZM768 107V105H766V107H768ZM775 107V109H777V107H775ZM775 100V98H773V100H775ZM782 100V102H784V100H782ZM782 93V91H780V93H782ZM810 93H812V91H810V93ZM810 100H808V102H810V100ZM817 100H819V98H817V100ZM817 107V109H819V107H817ZM803 107H801V109H803V107ZM803 100H805V98H803V100ZM789 100V98H787V100H789ZM789 107V109H791V107H789ZM782 107V105H780V107H782ZM782 128H780V130H782V128ZM789 128H791V126H789V128ZM789 135H787V137H789V135ZM803 135V137H805V135H803ZM803 128V126H801V128H803ZM817 128H819V126H817V128ZM817 135V137H819V135H817ZM810 135V133H808V135H810ZM810 142V144H812V142H810ZM782 142H784V135H782H780V142H782ZM782 135V133H775V135V137H782V135ZM775 135H777V128H775H773V135H775ZM775 128V126H768V128V130H775V128ZM768 128H770V107H768H766V128H768ZM768 107V109H775V107V105H768V107ZM775 107H777V100H775H773V107H775ZM775 100V102H782V100V98H775V100ZM782 100H784V93H782H780V100H782ZM782 93V95H810V93V91H782V93ZM810 93H808V100H810H812V93H810ZM810 100V102H817V100V98H810V100ZM817 100H815V107H817H819V100H817ZM817 107V105H803V107V109H817V107ZM803 107H805V100H803H801V107H803ZM803 100V98H789V100V102H803V100ZM789 100H787V107H789H791V100H789ZM789 107V105H782V107V109H789V107ZM782 107H780V128H782H784V107H782ZM782 128V130H789V128V126H782V128ZM789 128H787V135H789H791V128H789ZM789 135V137H803V135V133H789V135ZM803 135H805V128H803H801V135H803ZM803 128V130H817V128V126H803V128ZM817 128H815V135H817H819V128H817ZM817 135V133H810V135V137H817V135ZM810 135H808V142H810H812V135H810ZM810 142V140H782V142V144H810V142ZM845 142H843V144H845V142ZM845 121H847V119H845V121ZM838 121H836V123H838V121ZM838 114H840V112H838V114ZM831 114H829V116H831V114ZM831 93V91H829V93H831ZM845 93H847V91H845V93ZM845 114H843V116H845V114ZM859 114V116H861V114H859ZM859 93V91H857V93H859ZM873 93H875V91H873V93ZM873 114V116H875V114H873ZM866 114V112H864V114H866ZM866 121V123H868V121H866ZM859 121V119H857V121H859ZM859 142V144H861V142H859ZM845 142H847V121H845H843V142H845ZM845 121V119H838V121V123H845V121ZM838 121H840V114H838H836V121H838ZM838 114V112H831V114V116H838V114ZM831 114H833V93H831H829V114H831ZM831 93V95H845V93V91H831V93ZM845 93H843V114H845H847V93H845ZM845 114V116H859V114V112H845V114ZM859 114H861V93H859H857V114H859ZM859 93V95H873V93V91H859V93ZM873 93H871V114H873H875V93H873ZM873 114V112H866V114V116H873V114ZM866 114H864V121H866H868V114H866ZM866 121V119H859V121V123H866V121ZM859 121H857V142H859H861V121H859ZM859 142V140H845V142V144H859V142Z" fill="black" mask="url(#path-9-outside-5_27_9076)"/>
    </g>
    <defs>
    <filter id="filter0_d_27_9076" x="30" y="5" width="279" height="57" filterUnits="userSpaceOnUse" color-interpolation-filters="sRGB">
    <feFlood flood-opacity="0" result="BackgroundImageFix"/>
    <feColorMatrix in="SourceAlpha" type="matrix" values="0 0 0 0 0 0 0 0 0 0 0 0 0 0 0 0 0 0 127 0" result="hardAlpha"/>
    <feOffset dx="2" dy="4"/>
    <feComposite in2="hardAlpha" operator="out"/>
    <feColorMatrix type="matrix" values="0 0 0 0 0 0 0 0 0 0 0 0 0 0 0 0 0 0 1 0"/>
    <feBlend mode="normal" in2="BackgroundImageFix" result="effect1_dropShadow_27_9076"/>
    <feBlend mode="normal" in="SourceGraphic" in2="effect1_dropShadow_27_9076" result="shape"/>
    </filter>
    <filter id="filter1_d_27_9076" x="341" y="5" width="216" height="57" filterUnits="userSpaceOnUse" color-interpolation-filters="sRGB">
    <feFlood flood-opacity="0" result="BackgroundImageFix"/>
    <feColorMatrix in="SourceAlpha" type="matrix" values="0 0 0 0 0 0 0 0 0 0 0 0 0 0 0 0 0 0 127 0" result="hardAlpha"/>
    <feOffset dx="2" dy="4"/>
    <feComposite in2="hardAlpha" operator="out"/>
    <feColorMatrix type="matrix" values="0 0 0 0 0 0 0 0 0 0 0 0 0 0 0 0 0 0 1 0"/>
    <feBlend mode="normal" in2="BackgroundImageFix" result="effect1_dropShadow_27_9076"/>
    <feBlend mode="normal" in="SourceGraphic" in2="effect1_dropShadow_27_9076" result="shape"/>
    </filter>
    <filter id="filter2_d_27_9076" x="582" y="5" width="447" height="57" filterUnits="userSpaceOnUse" color-interpolation-filters="sRGB">
    <feFlood flood-opacity="0" result="BackgroundImageFix"/>
    <feColorMatrix in="SourceAlpha" type="matrix" values="0 0 0 0 0 0 0 0 0 0 0 0 0 0 0 0 0 0 127 0" result="hardAlpha"/>
    <feOffset dx="2" dy="4"/>
    <feComposite in2="hardAlpha" operator="out"/>
    <feColorMatrix type="matrix" values="0 0 0 0 0 0 0 0 0 0 0 0 0 0 0 0 0 0 1 0"/>
    <feBlend mode="normal" in2="BackgroundImageFix" result="effect1_dropShadow_27_9076"/>
    <feBlend mode="normal" in="SourceGraphic" in2="effect1_dropShadow_27_9076" result="shape"/>
    </filter>
    <filter id="filter3_d_27_9076" x="182" y="91" width="335" height="57" filterUnits="userSpaceOnUse" color-interpolation-filters="sRGB">
    <feFlood flood-opacity="0" result="BackgroundImageFix"/>
    <feColorMatrix in="SourceAlpha" type="matrix" values="0 0 0 0 0 0 0 0 0 0 0 0 0 0 0 0 0 0 127 0" result="hardAlpha"/>
    <feOffset dx="2" dy="4"/>
    <feComposite in2="hardAlpha" operator="out"/>
    <feColorMatrix type="matrix" values="0 0 0 0 0 0 0 0 0 0 0 0 0 0 0 0 0 0 1 0"/>
    <feBlend mode="normal" in2="BackgroundImageFix" result="effect1_dropShadow_27_9076"/>
    <feBlend mode="normal" in="SourceGraphic" in2="effect1_dropShadow_27_9076" result="shape"/>
    </filter>
    <filter id="filter4_d_27_9076" x="549" y="91" width="328" height="57" filterUnits="userSpaceOnUse" color-interpolation-filters="sRGB">
    <feFlood flood-opacity="0" result="BackgroundImageFix"/>
    <feColorMatrix in="SourceAlpha" type="matrix" values="0 0 0 0 0 0 0 0 0 0 0 0 0 0 0 0 0 0 127 0" result="hardAlpha"/>
    <feOffset dx="2" dy="4"/>
    <feComposite in2="hardAlpha" operator="out"/>
    <feColorMatrix type="matrix" values="0 0 0 0 0 0 0 0 0 0 0 0 0 0 0 0 0 0 1 0"/>
    <feBlend mode="normal" in2="BackgroundImageFix" result="effect1_dropShadow_27_9076"/>
    <feBlend mode="normal" in="SourceGraphic" in2="effect1_dropShadow_27_9076" result="shape"/>
    </filter>
    </defs>
    </svg>
    